<?xml version="1.0" encoding="UTF-8"?>
<svg id="Capa_1" data-name="Capa 1" xmlns="http://www.w3.org/2000/svg" viewBox="0 0 20 20">
  <path d="M12.55,9.05c.21,.05,.41,.12,.62,.15,.52,.08,1.03,.2,1.55,.23,.05,0,.11,.02,.16,.03,.61,.13,1.22,.26,1.83,.39,.09,.02,.18,.04,.26,.04,.38,0,.75,.06,1.12,.11,.3,.04,.6,.06,.9,.1,.21,.03,.42,.05,.59,.19,.11,.09,.15,.19,.12,.32-.08,.37-.31,.61-.67,.71-.04,.01-.09,.01-.13,0-.48-.08-.97-.14-1.45-.23-.43-.08-.85-.18-1.27-.27-.2-.04-.39-.1-.58-.16-.46-.14-.93-.22-1.4-.31-.48-.09-.97-.16-1.44-.3-.19-.06-.39-.05-.59-.07-.03,.06-.04,.1-.06,.14-.12,.29-.11,.37,.18,.53,.32,.17,.61,.41,.91,.63,.26,.19,.52,.38,.79,.57,.19,.13,.4,.24,.6,.37,.19,.12,.37,.24,.56,.36,.14,.09,.28,.18,.42,.28,.14,.1,.26,.21,.4,.3,.47,.32,.93,.66,1.41,.95,.25,.15,.3,.37,.3,.62,0,.13-.08,.23-.18,.31-.24,.21-.53,.27-.84,.23-.06,0-.12-.05-.17-.09-.19-.17-.38-.35-.57-.51-.34-.29-.67-.58-1.01-.87-.26-.22-.53-.41-.77-.64-.5-.45-1.03-.85-1.57-1.24-.35-.25-.71-.51-1.06-.76-.02-.01-.04-.01-.08-.02-.11,.06-.19,.17-.27,.27-.26,.34-.58,.61-.92,.87-.11,.08-.26,.13-.39,.18-.34,.15-.69,.24-1.06,.29-.5,.07-1,.11-1.5,.13-.36,.01-.71-.08-1.06-.12-.58-.08-1.09-.32-1.58-.62-.37-.23-.69-.53-.95-.88-.43-.6-.83-1.21-1.11-1.9-.16-.39-.33-.78-.4-1.2-.03-.16-.04-.33-.06-.51-.2-.12-.43-.16-.66-.22-.28-.07-.56-.14-.84-.21-.07-.02-.12-.05-.13-.13,0-.08,.05-.12,.11-.15,.15-.08,.31-.06,.46-.03,.32,.06,.63,.13,.95,.2,.04,0,.09,.02,.15,.04,.04-.06,.09-.12,.13-.18,.09-.2,.23-.36,.39-.49,.28-.24,.59-.44,.95-.55,.14-.04,.27-.09,.44-.15-.14-.13-.26-.25-.38-.35-.15-.12-.31-.22-.46-.34-.34-.26-.67-.51-1-.78-.16-.14-.3-.31-.32-.53,0-.04,.01-.1,.04-.12,.03-.02,.09-.03,.12-.01,.05,.02,.09,.06,.14,.09,.37,.27,.73,.55,1.1,.81,.18,.13,.37,.24,.56,.36,.11,.07,.22,.15,.32,.24,.05,.04,.1,.09,.15,.13,.42,.36,.52,.4,1.09,.35,.53-.05,1.07-.08,1.6-.06,.47,.02,.93,.08,1.4,.14,.33,.05,.66,.11,.98,.2,.5,.15,1.02,.23,1.49,.49,.54,.3,1,.7,1.39,1.19,.12,.15,.2,.32,.28,.49,.04,.1,.06,.22,.06,.32-.01,.21-.05,.41-.08,.67Zm-6.6,.57c.12,.09,.26,.09,.4,.09-.04-.03-.07-.06-.11-.07-.1-.01-.2-.01-.29-.02-.14-.1-.29-.12-.49-.13,.17,.11,.33,.13,.49,.12Zm5.49-2.61c-.04-.14-.14-.19-.27-.2,0-.02,0-.05-.02-.06-.27-.24-.6-.37-.95-.46-.03,0-.06,0-.14,.01,.39,.18,.75,.34,1.11,.5,.05,.12,.14,.19,.27,.2,0,.12,.12,.15,.18,.23,.07,.08,.16,.15,.24,.23,.07,.06,.11,.15,.23,.22-.14-.26-.29-.43-.52-.6-.04-.03-.1-.04-.15-.06Zm-8.97,1.25s-.04,.01-.06,.02c.02,.07,.02,.15,.05,.22,.32,.95,.77,1.82,1.37,2.62,.3,.4,.66,.72,1.1,.96,.39,.22,.79,.42,1.24,.47,.13,.02,.26,.05,.39,.07,.44,.07,.88,.11,1.33,.06,.33-.04,.66-.08,.99-.12,.4-.06,.77-.22,1.15-.36,.03-.01,.06-.04,.08-.06,.44-.33,.83-.7,1.15-1.17-.28-.2-.56-.4-.83-.6-.37,.12-.72,.16-1.08,.17-.49,0-.98,0-1.47-.03-.45-.03-.88-.09-1.32-.16-.19-.03-.37-.08-.55-.13-.64-.17-1.3-.32-1.88-.66-.07-.04-.14-.07-.21-.11-.3-.15-.57-.34-.82-.56-.11-.1-.23-.18-.33-.28-.11-.11-.2-.23-.3-.35Zm-.05-4.19s-.03,.04-.05,.05c.06,.06,.12,.12,.19,.18,.37,.29,.74,.57,1.11,.86,.21,.16,.42,.33,.63,.5,.31,.24,.61,.48,.92,.72,.12,.1,.24,.2,.37,.28,.97,.67,1.94,1.35,2.87,2.08,.29,.23,.58,.45,.88,.66,.31,.22,.63,.42,.94,.64,.61,.44,1.22,.9,1.83,1.35,.42,.31,.88,.57,1.24,.96,0,0,.02,.02,.03,.02,.17,.04,.28,.17,.41,.28,.04,.03,.09,.05,.14,.07,.11-.17,.21-.33,.31-.48-.18-.14-.35-.27-.52-.39-.39-.28-.78-.55-1.17-.82-.12-.08-.24-.16-.37-.23-.3-.19-.61-.37-.91-.57-.34-.23-.67-.47-1.01-.71-.17-.11-.35-.2-.51-.31-.51-.33-1.03-.67-1.53-1.01-.38-.25-.75-.51-1.12-.78-.24-.17-.46-.36-.7-.52-.39-.27-.8-.52-1.2-.79-.3-.21-.6-.43-.89-.64-.22-.16-.45-.33-.67-.5-.12-.08-.24-.16-.36-.24-.29-.21-.57-.42-.86-.63Zm9.61,4.7c.1-.09,.09-.19,.11-.29,.02-.14,.02-.25-.08-.37-.13-.15-.24-.32-.36-.48-.31-.44-.71-.77-1.22-.95-.09-.03-.19-.07-.28-.11-.32-.15-.66-.26-1.02-.32-.19-.03-.37-.06-.56-.1-.45-.09-.89-.18-1.34-.27-.08-.01-.16-.02-.23-.02-.53,.02-1.07,.04-1.6,.07-.01,0-.03,.03-.05,.06,.28,.19,.55,.38,.82,.56,.05,.03,.13,.04,.19,.04,.4,0,.8,.03,1.2,.08,.39,.05,.78,.11,1.14,.24,.8,.28,1.6,.55,2.34,.98,.38,.22,.73,.45,.93,.88Zm-2.61-.08s.04,.08,.06,.09c.26,.17,.52,.34,.79,.5,.09,.06,.2,.09,.31,.12,.37,.09,.74,.17,1.1,.26,.63,.14,1.26,.28,1.89,.42,.6,.13,1.2,.24,1.8,.36,.07,.01,.15,.02,.23,.03,.06-.21,.12-.41,.18-.63-.1-.03-.19-.06-.29-.08-.5-.09-1.01-.17-1.51-.26-.3-.05-.59-.1-.89-.15-.13-.02-.26-.05-.39-.08-.48-.1-.95-.22-1.43-.31-.44-.08-.88-.14-1.32-.19-.17-.02-.34-.1-.54-.07Zm-.87,.43c-.33-.35-.65-.68-1.16-.73-.26-.02-.53-.08-.79-.13-.15-.03-.31-.05-.46-.09-.63-.14-1.26-.29-1.89-.43-.47-.1-.93-.2-1.4-.31-.41-.09-.82-.19-1.23-.29-.14-.03-.28-.06-.43-.08-.04,0-.09,0-.21,.02,.1,.05,.14,.08,.18,.08,.51,.1,1.01,.26,1.52,.39,.75,.2,1.51,.37,2.27,.56,.69,.18,1.38,.37,2.06,.56,.43,.12,.85,.26,1.28,.38,.08,.02,.17,.03,.26,.05Zm-3.93-3.01c-.18,.05-.33,.1-.48,.13-.49,.08-.88,.35-1.23,.69-.08,.08-.14,.17-.1,.3,.21,.08,.43,.11,.61,0,.26-.16,.54-.26,.81-.37,.22-.09,.44-.14,.68-.13,.11,0,.23,.02,.39-.04-.26-.22-.49-.4-.69-.58Zm12.72,4.76c.37,.17,.78,.15,1.16,.26,.1,.03,.22,.05,.32-.02-.04-.3,.04-.57,.28-.83-.53-.08-1.02-.15-1.52-.16-.22,.21-.29,.45-.24,.75Zm-1.93,3.08c.12,.21,.34,.3,.5,.45,.16,.15,.28,.34,.51,.41q.19-.39,.62-.7s-.09-.1-.14-.14c-.24-.16-.48-.31-.73-.47-.19-.12-.19-.11-.44-.08-.16,.02-.24,.09-.28,.24-.02,.09-.03,.17-.04,.28ZM4.85,9.28c-.26-.2-1.03-.4-1.48-.4,.08,.1,.17,.16,.26,.21,.21,.11,.42,.21,.62,.33,.5,.31,1.07,.44,1.63,.59,.05,.01,.14,0,.15-.02,.05-.1,.12-.08,.2-.06,.06,.01,.12,0,.18,.01-.21-.09-.41-.21-.63-.07-.02,.01-.05,.01-.07,0-.25-.08-.51-.15-.76-.23,0,0,0-.04,0-.02,.04-.09,.13,.04,.16-.09-.14-.04-.27-.08-.41-.12-.13-.04-.26-.07-.39-.1-.13-.04-.29-.02-.42-.18,.35-.02,.63,.15,.96,.16Zm10.55,3.7c-.17-.13-.31-.23-.45-.35-.1-.08-.2-.08-.31-.03-.15,.07-.25,.18-.31,.33-.02,.04,0,.12,.02,.15,.16,.16,.32,.32,.56,.44,.02-.3,.24-.41,.48-.56Zm1.04-3.03c-.16,.1-.23,.22-.28,.36-.05,.14,0,.3,.11,.35,.17,.06,.35,.13,.56,.07,.01-.11,.02-.22,.04-.33,.02-.11,.06-.21,.09-.31-.02-.02-.02-.03-.03-.03-.16-.04-.32-.07-.49-.11Zm1.04,4.69s-.02-.11-.04-.17c-.04-.13-.12-.17-.26-.14-.21,.04-.37,.15-.46,.34-.06,.12-.12,.26-.02,.38,.09,.11,.24,.09,.38,.06,.19-.04,.4-.28,.4-.47ZM5.01,8.76c-.07-.03-.13-.07-.21-.09-.59-.16-1.18-.31-1.77-.47-.03,0-.05-.03-.08-.05,.13-.07,.15-.08,.21-.06,.2,.06,.4,.12,.61,.18,.12,.04,.23,.1,.42,.05-.31-.11-.57-.2-.84-.29-.1-.03-.2-.07-.31-.11-.15,.07-.18,.19-.12,.36,.69,.16,1.35,.44,2.08,.48Zm.3,.25c.1,.07,.12,.1,.15,.1,.33,.07,.65,.14,.98,.2,.04,0,.09,.01,.13,0,.25-.07,.51-.03,.76,.01,.19,.03,.37,.06,.56,.09,.11,.02,.21,.04,.33-.04-.05-.02-.09-.05-.13-.06-.34-.06-.68-.12-1.02-.16-.1-.01-.21-.01-.29,.02-.1,.04-.19,.02-.29,0-.33-.07-.65-.13-.98-.19-.04,0-.08,0-.19,.02Zm-.93-3.01c-.03-.1-.09-.08-.14-.07-.45,.07-.86,.23-1.23,.49-.25,.18-.47,.41-.59,.75,.06-.02,.12-.01,.13-.03,.11-.24,.31-.39,.51-.56,.32-.26,.67-.43,1.07-.5,.08-.01,.16-.05,.24-.07Zm4.88,4c-.31-.09-.63-.12-.95-.12-.13,0-.26-.04-.39-.06-.36-.08-.71-.16-1.07-.24-.05-.01-.1,0-.15,0,.83,.34,1.68,.47,2.56,.43Zm-4.77-1.55c.28,.08,.5,.17,.73,.2,.44,.07,.88,.11,1.33,.16,.04,0,.09,0,.14-.01-.29-.13-.59-.22-.89-.3-.07-.02-.17-.03-.23,0-.18,.09-.35,.03-.52,0-.16-.04-.32-.1-.55-.04Zm4.91-1.03c-.24-.17-.5-.29-.78-.36-.28-.07-.55-.17-.84-.16,.14,.08,.27,.16,.4,.24,.04,.02,.08,.05,.12,.06,.37,.08,.73,.15,1.1,.22Zm9.6,3.47s.04,.11,.08,.15c.05,.06,.13,.03,.18,0,.15-.09,.24-.23,.28-.4,.02-.09-.04-.17-.11-.18-.17-.02-.32,.08-.37,.25-.02,.05-.03,.11-.05,.18ZM7.62,7.48s-.01,.04-.02,.06c.03,.02,.06,.06,.1,.07,.18,.04,.37,.07,.55,.11,.22,.05,.43,.1,.64,.15,.07,.02,.13,0,.15-.08-.22-.11-.71-.24-1.17-.31-.08-.01-.17,0-.25,0Zm-.64,1.95c.71,.2,1.43,.35,2.17,.38,.02,0,.04-.01,.1-.03-.36-.1-.68-.12-1-.15-.09,0-.18,0-.26-.04-.24-.11-.5-.1-.75-.16-.08-.02-.17,0-.25,0Zm-3.99-.91c.12,.11,.19,.16,.35,.16,.2,0,.39,.07,.58,.13,.2,.06,.4,.12,.61,.17,.06,.02,.13,.02,.16-.07-.19-.06-.38-.12-.57-.17-.18-.05-.37-.08-.55-.12-.19-.04-.35-.19-.57-.1Zm1.39-1.46c.63,.12,1.21,.24,1.8,.35,.01,0,.03-.02,.06-.04-.04-.03-.07-.06-.11-.07-.18-.04-.37-.08-.55-.11-.2-.04-.39-.08-.59-.11-.11-.01-.22-.02-.31-.09-.09-.07-.18-.05-.3,.07Zm7.43,3.29c.13-.12,.2-.25,.18-.43-.23-.08-.42-.03-.61,.12,.11,.16,.26,.24,.42,.31Zm-7.6-3.11c.52,.11,.99,.21,1.45,.3,.16,.03,.33,.05,.49,.08,.02,0,.04-.02,.08-.03-.56-.19-1.6-.37-2.02-.35Zm5.01,.8c.38,.14,.78,.19,1.16,.29,0,0,.03-.03,.06-.06-.26-.16-.56-.18-.84-.26-.13-.03-.25-.07-.38,.03Zm.98,.43c-.11-.06-.14-.08-.18-.09-.23-.05-.46-.08-.68-.15-.22-.07-.42-.03-.66,.04,.1,.06,.18,.11,.26,.14,.02,.01,.08,0,.09-.01,.08-.17,.22-.1,.34-.08,.21,.04,.41,.1,.62,.14,.05,0,.1,0,.23,0Zm-1.87,1.88c-.41-.11-.81-.21-1.26-.16,.04,.04,.06,.08,.09,.08,.39,.08,.78,.13,1.17,.07Zm3.86-1.38c.07,0,.12,.02,.15,0,.04-.03,.09-.08,.1-.13,.03-.26,.06-.53-.05-.78-.02-.04-.06-.08-.12-.17,0,.13-.03,.22,0,.27,.06,.08,.05,.16,.06,.25,.02,.19-.07,.36-.14,.56Zm3.49,4.31s.01-.05,0-.05c-.35-.08-.56,.07-.56,.42,0,.06,.01,.11,.11,.09,.07-.22,.19-.41,.44-.47Zm-9.37-3.74s.01-.05,.02-.07c-.06-.02-.12-.06-.18-.07-.25-.03-.49-.14-.75-.12,0,0,0,.02-.04,.06,.32,.1,.63,.18,.95,.2Zm4.35-1.38c.25,.07,.49,.14,.73,.21-.13-.18-.3-.28-.48-.37-.08,.05-.15,.1-.25,.16Zm6.7,1.95c-.24,.05-.24,.2-.29,.31-.05,.13-.1,.27,.03,.42,.13-.23,.12-.47,.26-.74Zm-6.6-2.16c-.25-.21-.49-.28-.77-.21,.13,.15,.33,.21,.77,.21Zm-4.13,1.06c-.33-.12-.75-.18-.98-.13,.32,.05,.62,.2,.98,.13Zm5.14-.33c-.23-.17-.46-.18-.67-.24-.04-.01-.08,0-.12,0,0,.13,.07,.17,.17,.18,.18,.01,.37,.03,.62,.05Zm-8.94-.83c-.13-.07-.23-.17-.39-.1,.03,.06,.04,.12,.07,.16,.04,.08,.09,.15,.14,.23,.03-.02,.05-.03,.06-.05,.04-.07,.07-.14,.13-.24Zm5.66,2.33c.37,.08,.8,.09,1.08,.03-.28-.07-.78-.09-1.08-.03Zm5.66,2.72c.1-.19,.31-.29,.41-.5-.15-.02-.23,.05-.3,.14-.08,.1-.15,.21-.11,.36Zm1.74-2.31c.13-.14,.12-.25,.14-.36,.02-.11,.12-.19,.12-.33-.2,.1-.26,.27-.31,.43-.02,.06,.03,.14,.06,.26Zm-7.23-2.6c-.2-.12-.37-.14-.56-.1,.13,.08,.25,.16,.41,.25,.05-.04,.09-.09,.16-.15Zm-1.09,1.08c-.29-.14-.37-.16-.57-.14,.1,.15,.18,.17,.57,.14Zm.68-3.17c.34,.12,.63,.11,.91,.15-.24-.07-.49-.12-.73-.17-.04,0-.08,0-.18,.02Zm-2.45,1.14c-.23-.16-.46-.12-.69-.12,.2,.06,.4,.11,.6,.16,.02,0,.04-.01,.09-.03Zm3.45,.6c.07,.22,.2,.28,.41,.21-.17,0-.2-.23-.41-.21Zm-5.14,.44c.17,.15,.34,.19,.58,.16-.2-.06-.39-.11-.58-.16Zm5.3-1.97c.08,.02,.17,.05,.25,.07,.08,.03,.16,.05,.24,.08q-.23-.17-.49-.15Zm-5.41,1.3c-.05-.11-.13-.14-.3-.08,.14,.04,.22,.06,.3,.08Zm3.69-.17c.07,.11,.17,.12,.27,.06-.09-.02-.18-.04-.27-.06Zm2.47,3.05c0-.13-.05-.18-.21-.16,.1,.08,.16,.12,.21,.16Zm-2.61-.29s0-.02,0-.03h-.23s0,.02,0,.03h.23Zm3.04-1.34c-.09-.04-.16-.09-.24,0h.24Z"/>
</svg>