<?xml version="1.0" encoding="UTF-8"?>
<svg id="Capa_1" data-name="Capa 1" xmlns="http://www.w3.org/2000/svg" viewBox="0 0 19.21 16.74">
  <defs>
    <style>
      .cls-1 {
        fill: #fff;
      }
    </style>
  </defs>
  <path class="cls-1" d="M1.82,3.71c.31-.11,.57-.33,.89-.42,.42-.12,.84-.24,1.28-.13,.12,.03,.22,0,.33-.05,.58-.26,1.19-.32,1.81-.25,.28,.03,.57,.04,.85,.09,.37,.07,.74,.12,1.11,.18,.17,.03,.32,.13,.48,.18,.56,.16,1.05,.46,1.53,.77,.21,.14,.41,.3,.6,.46,.34,.29,.67,.59,.99,.9,.36,.34,.6,.78,.85,1.2,.34,.6,.65,1.21,.99,1.81,.16,.28,.35,.54,.52,.81,.05,.07,.11,.11,.19,.14,.3,.12,.61,.22,.88,.38,.42,.26,.85,.5,1.2,.85,.06,.06,.12,.14,.18,.21,.19,.22,.39,.45,.59,.67,.48,.52,.84,1.11,1.08,1.78,.07,.2,.05,.23-.13,.46-.18-.03-.33-.13-.45-.27-.1-.11-.19-.23-.3-.33-.1-.09-.19-.19-.34-.21-.28-.04-.45-.22-.56-.46-.02-.04-.04-.08-.07-.13-.08-.02-.16-.03-.23-.06-.25-.08-.45-.21-.56-.47-.04-.09-.11-.18-.2-.23-.19-.11-.31-.28-.42-.45-.11-.16-.2-.34-.29-.51-.04-.08-.1-.12-.19-.1-.03,.17-.06,.34-.08,.5,0,.06,.01,.14,.05,.19,.12,.2,.11,.4,0,.59-.07,.13-.09,.26-.02,.39,.11,.22,.05,.42-.05,.62-.04,.07-.08,.14-.12,.22,.27,.36,.22,.7-.04,1.02,.02,.05,.02,.09,.04,.11,.25,.32,.31,.7,.39,1.09,0,.04,.02,.09,.01,.14-.02,.3-.19,.46-.48,.27-.14-.09-.27-.21-.39-.33-.35-.38-.63-.82-.87-1.27-.22-.41-.44-.83-.63-1.26-.12-.26-.19-.54-.27-.81-.11-.39-.17-.78-.17-1.19,0-.24,.05-.48,.13-.71,.07-.21,.18-.4,.34-.55,.07-.07,.14-.14,.23-.24-.07-.05-.11-.08-.15-.11-.19-.1-.32-.26-.45-.42-.08-.11-.16-.23-.24-.33-.02-.03-.08-.02-.12-.03,0,.04-.01,.08-.02,.12,0,.01,0,.02-.02,.04-.2,.06-.28-.21-.48-.19-.16,.02-.29-.2-.49-.09v.15c-.08,.03-.17,.06-.23,.11-.06,.05-.1,.14-.15,.22-.11-.1-.01-.2-.03-.31-.13-.02-.26-.04-.4-.05-.3-.02-.56-.11-.75-.34-.3,.02-.59,.05-.92,.07,.12,.19,.21,.36,.33,.51,.07,.08,.19,.1,.29,.15,.01,.08-.05,.08-.11,.09-.19,.01-.29-.11-.38-.25-.09-.15-.16-.3-.33-.41-.07,.04-.15,.09-.24,.14-.03-.14,.11-.19,.17-.3-.27-.05-.53-.08-.78-.16-.24-.07-.46-.19-.71-.3-.47,.09-.96,.08-1.46-.07,.1,.13,.25,.23,.08,.4-.07-.23-.2-.38-.45-.44-.28,.43-.66,.75-1.15,.97,.06,.08,.1,.14,.14,.2q-.28,0-.49,.18c.02-.11,.04-.19,.06-.3-.23,.05-.43,.04-.63-.04-.22-.08-.42-.19-.56-.38-.09-.12-.19-.23-.28-.34h0c-.03-.17-.06-.35-.09-.53-.05-.28-.1-.56-.16-.84-.05-.27-.18-.48-.38-.67-.16,.12,0,.17,.05,.27-.05,.02-.1,.03-.16,.05-.06,.18-.01,.37-.01,.55,.43,.14,.45,.15,.42,.4-.08-.08-.14-.16-.22-.21-.09-.05-.19-.06-.31-.1-.09-.17-.03-.37-.01-.56,.02-.2,.09-.4,.12-.6,.01-.07,0-.16-.03-.23-.08-.2-.07-.38,.05-.56,.06-.1,.07-.21,.09-.32,.05-.31,.23-.55,.5-.7,.13-.07,.27-.13,.43-.11-.03,.07-.06,.15-.07,.22-.02,.11-.07,.19-.19,.25,.01-.09,.02-.16,.03-.23q-.22,.04-.29,.45c.16,.02,.31,.06,.5-.01-.02-.22,.06-.44,.01-.66Zm9.82,2.83c.09,.1,.18,.21,.27,.31,.04,.04,.09,.08,.14,.08,.14,0,.28,0,.46-.01-.1-.16-.18-.28-.26-.41-.22,.02-.42,.03-.63,.05,.13-.14,.31-.18,.49-.23,0-.11-.05-.17-.15-.15-.11,.02-.22,.05-.33,.07-.03,0-.07-.03-.11-.04,.1-.15,.31-.07,.39-.22-.03-.03-.05-.08-.07-.08-.21,.01-.43,.03-.62,.19,.14,.16,.28,.31,.41,.46ZM1.06,5.58h0c.03,.15,.1,.28,.25,.4,.06-.27,.11-.5,.16-.73,.05-.23,.15-.44,.28-.67-.22,0-.39,0-.57,0,0,0-.01,.02-.03,.04,.01,.06,.03,.14,.04,.21-.08,.17-.21,.32-.25,.53,.04,.06,.09,.14,.14,.21Zm2.27-1.58c-.05,.07-.1,.13-.19,.25,0-.37,.12-.63,.22-.92h-.18c-.05,.16-.09,.31-.15,.46-.06,.14-.04,.31-.22,.43,0-.08-.02-.12-.01-.16,.04-.18,.1-.35,.14-.53,0-.04,0-.08,0-.12-.13,0-.18,.07-.22,.16-.04,.08-.05,.18-.16,.2h0c-.01-.07-.02-.14-.04-.21-.16,.04-.25,.11-.25,.26,0,.08-.04,.17-.07,.27-.09-.1,0-.23-.16-.3-.06,.21-.13,.39-.05,.61,.06,0,.12,.02,.17,.03,.32,.01,.64,.04,.96,.03,.21,0,.43,0,.62-.11,.02-.03,.03-.05,.04-.08,.04-.27,.09-.54,.26-.77,.01-.02,.02-.04,.02-.06,0-.02,0-.04-.01-.08-.04-.01-.09-.02-.17-.04-.1,.22-.2,.42-.3,.63-.02,.05-.05,.1-.08,.15-.04,.06-.1,.05-.16-.03-.01-.02-.02-.04-.02-.06,.16-.17,.3-.46,.35-.72-.03,.01-.08,.02-.09,.03-.1,.22-.3,.41-.25,.69Zm7,.46h0c-.04-.07-.11-.12-.19-.12-.06,0-.14,.02-.19,.06-.11,.09-.2,.19-.3,.28-.03,.03-.05,.1-.14,.06,.06-.1,.13-.2,.19-.29,.06-.09,.18-.14,.2-.28-.04-.01-.08-.03-.1-.03-.1,.03-.19,.08-.29,.12-.25,.08-.4,.25-.48,.5,.5,.29,.99,.57,1.46,.84,.19-.14,.36-.26,.52-.38,.03-.02,.05-.06,.09-.11-.07-.06-.13-.11-.19-.16-.13,.04-.19,.19-.37,.17,.1-.1,.18-.18,.26-.27-.12-.1-.12-.1-.18-.06-.13,.09-.26,.19-.4,.27-.04,.02-.1,0-.22,0,.15-.1,.23-.16,.31-.21,.08-.06,.16-.12,.23-.18-.03-.14-.12-.19-.23-.21Zm-1.64-.19c-.06,.03-.12,.05-.22,.1,.09-.33,.37-.49,.53-.77-.07,0-.12,0-.15,.02-.08,.08-.16,.16-.23,.25-.11,.13-.2,.27-.31,.41,0,.01-.04,0-.06,0-.02-.14-.02-.14,.17-.37,.17-.2,.18-.24,.21-.42-.34,.16-.41,.54-.67,.77-.05-.12,0-.18,.05-.25,.11-.17,.23-.34,.34-.52,.02-.03,.01-.08,.02-.13-.19,.09-.19,.09-.25,.19-.08,.14-.16,.28-.25,.41-.03,.04-.06,.1-.15,.06,.06-.25,.3-.42,.33-.74-.24,.17-.28,.46-.52,.62,.01-.27,.24-.41,.25-.62-.16-.05-.2-.06-.25-.02-.2,.16-.36,.35-.47,.58-.03,.07-.02,.15-.03,.23,.31,.1,.61,.18,.9,.28,.3,.11,.59,.23,.87,.35,.03-.02,.04-.02,.05-.03,.02-.03,.05-.05,.06-.08,.13-.28,.34-.46,.64-.51,.03,0,.06-.05,.09-.08-.08-.11-.17-.15-.28-.16-.06-.07-.13-.13-.23-.13-.09,.09-.19,.17-.28,.26-.08,.08-.17,.16-.18,.28Zm-2.34-.55c-.08,.06-.15,.12-.26,.21-.02-.21-.19-.08-.28-.15,.02-.05,.03-.08,.05-.11,.11-.19,.22-.38,.32-.57,.01-.02-.02-.08-.04-.11,0-.01-.06,0-.09,.02-.02,0-.03,.03-.04,.05-.11,.2-.21,.41-.32,.6-.04,.07-.1,.09-.15,0,.08-.23,.3-.4,.31-.67h-.23c-.03,.3-.16,.55-.3,.8-.02,.04-.07,.07-.12,0,.05-.11,.12-.23,.17-.36,.05-.12,.11-.25,.04-.42-.06,0-.12,0-.19,0-.18,0-.3,.08-.36,.26-.05,.16-.11,.32-.17,.48-.02,.07-.03,.16-.18,.2,.04-.28,.19-.52,.19-.8-.25,.22-.41,.63-.4,1.01,.28,.08,.56-.05,.84-.05,.27,0,.55-.05,.82-.05,.28,0,.57,.02,.87,.03,.1-.34,.24-.64,.51-.87-.12-.13-.24-.12-.34-.04-.1,.08-.18,.18-.24,.28-.08,.12-.15,.25-.3,.32-.04-.03-.07-.05-.11-.08,.23-.13,.35-.34,.46-.56,0,0-.02-.03-.05-.07-.21,.17-.34,.38-.4,.63ZM1.8,4.88c.08,.03,.15,.07,.15,.16,0,.08,0,.16-.02,.24-.06,.55-.11,1.09-.05,1.64,.05,.49,.18,.96,.39,1.41,0,0,.02,0,.08,.02-.08-.37-.2-.71-.26-1.06-.07-.37-.09-.75-.09-1.13,0-.37,.03-.73,.06-1.1,.08-.02,.17-.03,.23-.07,.06-.05,.09-.13,.16-.24,.08,.23,.07,.42,.02,.61-.02,.09-.04,.18-.04,.26,0,.18,0,.37,0,.55,0,.45,.08,.89,.19,1.32,.07,.29,.18,.57,.33,.83,.03,.05,.06,.11,.13,.08,.06-.03,.03-.1,.01-.15-.02-.05-.04-.11-.06-.16-.09-.25-.17-.5-.26-.75-.15-.4-.18-.83-.26-1.24-.04-.19-.02-.39,.04-.59,.04,.2,.08,.39,.12,.62,.02-.06,.04-.09,.04-.12,0-.09-.02-.18-.03-.27-.04-.26-.07-.52-.11-.78,0-.06,0-.12,.1-.14,.07,.11,.07,.28,.25,.31,.03,0,.04,.1,.05,.15,.06,.28,.1,.56,.17,.84,.14,.6,.42,1.13,.7,1.67,.01,.03,.05,.04,.07,.06,.17-.1,.17-.1,.24-.27-.25-.11-.41-.32-.54-.55-.4-.68-.47-1.42-.48-2.19,0-.04,0-.09,.07-.09,.02,.02,.05,.03,.05,.04,.02,.19,.06,.39,.06,.58,0,.28,.04,.55,.13,.81,.1,.27,.19,.54,.32,.8,.1,.21,.25,.41,.49,.47,.09-.06,.1-.12,.04-.18-.13-.16-.26-.32-.4-.47-.16-.18-.24-.39-.29-.61-.02-.1-.05-.2-.07-.3-.06-.4-.13-.79-.02-1.19,.01-.04,0-.09,0-.15-.28,0-.54-.02-.79,0-.26,.03-.52-.07-.79,.02-.04,.1-.08,.19-.12,.28-.19,.22-.24,.49-.27,.76-.02,.17-.01,.35-.05,.51-.05,.22-.04,.43,0,.64,.04,.23,.08,.45,.14,.67,.05,.16,.12,.32,.19,.47,.02,.04,.05,.1,.14,.06-.02-.09-.04-.17-.06-.26-.16-.6-.24-1.21-.17-1.83,.04-.34,.06-.68,.09-1.02Zm5.23,2.62h0c0-.21,0-.42-.02-.64-.04-.62,.14-1.19,.38-1.75,.01-.03,.05-.04,.08-.06,.05,.07,.09,.13,.13,.19,.08-.05,.14-.09,.2-.13,.12,.14,0,.27,.04,.4,.05-.12,.07-.24,.1-.36,.02-.06,.05-.11,.08-.18,.11,.08,.27,.05,.31,.2h0s-.05,.07-.06,.11c-.08,.31-.13,.62-.17,.94-.07,.59-.01,1.16,.1,1.74,.15,.06,.3,.04,.44,.02,.15-.01,.2-.09,.18-.23-.03-.19-.09-.38-.1-.57-.03-.44-.05-.89,.06-1.33,.07-.28,.11-.58,.16-.87-.23-.12-.44-.24-.66-.33-.34-.13-.69-.24-1.04-.35-.03-.01-.07,0-.1-.01-.2-.05-.36,.04-.48,.19-.32,.41-.57,.86-.53,1.41,.01,.18,0,.37,.03,.55,.03,.24,.05,.49,.17,.72,.01-.08,.03-.16,0-.24-.1-.37-.06-.73,.05-1.08,.09-.32,.2-.64,.38-.92,.03-.04,.08-.06,.15-.12,.02,.15,.06,.23,0,.36-.19,.41-.3,.84-.32,1.29-.02,.39,.03,.78,.18,1.14,.02,.05,.05,.11,.1,.13,.21,.1,.44,.16,.7,.14-.16-.03-.18-.14-.2-.25-.07-.34-.13-.67-.12-1.02,0-.06,0-.11,0-.17,0-.04-.02-.09-.03-.17-.02,.07-.03,.09-.03,.11,0,.38-.04,.76,.05,1.13,.02,.07,.05,.16-.07,.21-.04-.07-.09-.13-.13-.19Zm-3.14-.95c0-.3-.1-.58-.1-.87,0-.53,.02-.69,.18-.89,.01,.06,.03,.1,.03,.13-.01,.12-.03,.25-.06,.37-.09,.3-.03,.59,.06,.88,.04,.13,.09,.26,.12,.39,.02,.06,.04,.14,.03,.2-.05,.16,.05,.22,.19,.34-.01-.1-.01-.15-.02-.2-.05-.29-.1-.59-.16-.88-.07-.33,0-.66,.02-.99,0-.06,.02-.14,.13-.15,0,.04,.03,.07,.02,.11-.02,.24-.08,.48-.08,.71,0,.27,.06,.55,.12,.82,.05,.23,.13,.46,.21,.69,.03,.08,.09,.13,.21,.13-.02-.08-.03-.16-.05-.23-.07-.25-.16-.5-.2-.76-.09-.52-.07-1.05,.03-1.57,.01-.05,.02-.12,.11-.09,0,.02,.03,.04,.02,.06-.03,.32-.06,.64-.09,.96-.04,.32,.05,.78,.25,1.16-.03-.18-.05-.29-.06-.4-.03-.23-.08-.46-.07-.68,.01-.33,.07-.66,.12-.99,0-.03,.05-.06,.1-.11,.01,.08,.03,.13,.02,.17-.01,.15-.03,.3-.05,.44-.08,.6-.03,1.19,.16,1.76,.02,.06,.05,.13,.08,.19,.02,.04,.05,.11,.12,.06-.25-1.04-.23-2.2,.04-2.45,.01,.02,.04,.04,.04,.05,0,.06,0,.11-.02,.17-.15,.58-.13,1.16-.03,1.74,.03,.19,.11,.37,.18,.55,.04,.11,.13,.16,.23,.19,.06,.02,.11,0,.23-.06-.35-.16-.4-.23-.5-.62,0-.02,0-.05-.01-.07-.11-.48-.07-.96-.04-1.44,.01-.17,.09-.33,.15-.49,.02-.06,.08-.07,.14,0-.03,.07-.06,.14-.08,.22,0,.03,.01,.07,.02,.12,.14-.11,.14-.26,.19-.38,.02-.06,.04-.14,.15-.1-.07,.28-.15,.57-.19,.86-.04,.31,.01,.62,.05,.92,.05,.36,.13,.61,.29,.8,0-.04,0-.08,0-.11-.12-.36-.14-.74-.15-1.12,0-.09-.01-.18-.02-.27,0-.25,.02-.5,.14-.73,.13-.24,.24-.5,.42-.71,.03-.04,.04-.09,.07-.16-.97-.04-1.88,.03-2.76,.29-.15,.17-.21,.36-.22,.55-.04,.46,.08,.91,.2,1.35,.01,.05,.05,.1,.07,.15ZM14.38,15.61c.06-.18,.08-.34,.05-.51-.07-.38-.25-.69-.51-.95-.29-.28-.51-.62-.75-.94-.18-.24-.3-.52-.41-.79-.26-.68-.39-1.39-.49-2.1-.01-.1-.01-.2-.12-.29-.05,.12-.11,.23-.15,.35-.09,.28-.05,.56-.03,.85,.05,.59,.25,1.14,.45,1.68,.15,.41,.39,.78,.59,1.16,.1,.19,.21,.38,.33,.56,.11,.16,.22,.32,.34,.47,.11,.13,.23,.25,.36,.37,.08,.08,.18,.14,.35,.14ZM9.94,5.68c.08,.07,.12,.09,.12,.11,.01,.1,.01,.2,.01,.3,0,.32-.01,.64,0,.96,0,.24,.05,.48,.07,.72,.01,.12,.02,.25,.08,.4,.08-.18,.03-.33,.01-.47-.01-.1-.05-.2-.05-.3-.01-.45-.02-.89,.01-1.34,0-.04,0-.09,.09-.09,.07,.14,.05,.3,.04,.46-.02,.48-.03,.96,.08,1.43,0,.03,.04,.06,.09,.12-.04-.78-.08-1.51-.12-2.23-.38-.31-.99-.64-1.26-.69-.11,.26-.15,.54-.21,.82-.1,.51-.06,1.03,0,1.54,.02,.2,.08,.4,.22,.59,.07-.14,.05-.25,.03-.36-.09-.5-.14-1-.08-1.5,.02-.14,.01-.27,.02-.41,0-.05,.02-.12,.13-.08,0,.21-.01,.42-.02,.64-.01,.2-.02,.41,0,.62,.03,.36,.09,.73,.14,1.09,0,.07,.04,.13,.06,.2,.03-.19,.02-.38-.01-.55-.12-.63-.09-1.25-.02-1.88,0-.04,.04-.07,.09-.15,.06,.21,.04,.37,.02,.52-.09,.58,0,1.14,.09,1.71,.01,.08,.05,.15,.06,.23,.01,.07,.01,.15,.02,.25,.07-.02,.12-.03,.17-.05-.05-.36-.12-.7-.13-1.04-.02-.46,0-.91,.01-1.37,0-.06,.02-.11,.03-.17,0-.01,.03-.02,.06-.03,.09,.07,.05,.16,.05,.25-.01,.53-.09,1.05,.01,1.58,.05,.25,.04,.51,.17,.75,0-.31-.01-.62-.06-.92-.09-.53-.02-1.05-.03-1.65Zm2.57,3.93c-.17,.06-.18,.19-.16,.33,.04,.25,.08,.5,.12,.75,.09,.57,.21,1.12,.41,1.66,.04,.11,.09,.21,.13,.31,.18,.37,.44,.69,.68,1.03,.08,.11,.16,.22,.29,.26,.13-.04,.17-.13,.2-.23,.03-.12,.05-.26-.02-.37-.1-.16-.16-.34-.33-.46-.16-.11-.29-.3-.4-.46-.35-.51-.52-1.09-.68-1.68-.1-.37-.16-.76-.25-1.15Zm-1.1-2.88c.1,.51-.02,.99,.12,1.49,.08-.46,.14-.87,.21-1.29-.26-.42-.76-.86-1.14-.98-.01,.03-.04,.06-.03,.09,0,.15,.01,.3,.02,.44,.03,.44,0,.89,.08,1.33,.02,.1,.03,.2,.13,.31,.01-.28,.02-.52-.02-.76-.02-.17-.03-.34-.03-.51,0-.04,0-.09,.08-.09,.08,.08,.04,.19,.05,.29,.01,.09,.01,.18,.02,.27,.01,.1,.03,.2,.04,.31,0,.09,0,.18,.01,.27q0,.15,.07,.27s.03-.07,.03-.1c-.01-.46-.03-.91-.04-1.37,0-.05,.02-.09,.1-.08,.09,.5-.03,1.03,.14,1.53,.03-.07,.04-.15,.04-.22,0-.27,0-.55,0-.82,0-.09,0-.18,0-.27,0-.03,.05-.06,.1-.13Zm2.66,6.15c.26-.34,.25-.56-.03-.82-.06-.05-.12-.11-.18-.16-.24-.22-.42-.48-.55-.78-.17-.4-.28-.82-.35-1.25-.01-.07-.02-.14-.04-.2-.03-.08-.08-.1-.21-.06-.03,.33,.08,.63,.14,.94,.12,.58,.32,1.12,.6,1.63,.15,.27,.31,.53,.61,.7Zm-1.74-3.77c.08,.02,.13,.04,.18,.03,.03,0,.07-.07,.07-.1,.02-.15,.02-.3,.03-.44,0-.04,0-.1,.06-.1,.1,.06,.05,.16,.06,.24,0,.08,.01,.17,.02,.32,.09-.16,.15-.25,.2-.34-.01-.05-.01-.08-.03-.11-.19-.34-.38-.67-.59-1-.11-.17-.23-.34-.42-.45-.2,.3-.12,.64-.18,.94,.06,.15,.01,.34,.18,.49,.03-.09,.06-.15,.06-.21,.01-.15,.01-.3,.02-.44,0-.04,0-.09,.08-.09,.01,.03,.04,.06,.04,.09,0,.26,.03,.53-.06,.78-.04,.11,0,.17,.1,.22,.08-.08,.09-.18,.1-.28,0-.11,0-.23,.02-.34,0-.03,.04-.06,.09-.12,.05,.33,.02,.61-.04,.93Zm1.84,.46c.11,.25,.19,.43,.28,.62,.02,.05,.05,.11,.08,.15,.14,.14,.22,.32,.32,.48,.1,.15,.2,.3,.31,.45,.08,.11,.18,.2,.34,.21,.01-.06,.04-.1,.03-.14-.09-.41-.2-.82-.38-1.2-.05-.1-.13-.19-.22-.25-.21-.14-.43-.25-.76-.31Zm-.08,2.33c.12-.07,.15-.17,.17-.27,.04-.18,0-.28-.17-.4-.07-.05-.14-.11-.2-.18-.24-.25-.32-.57-.38-.9,0-.05,.05-.11,.08-.18-.14-.07-.27-.16-.42-.19-.06,.72,.35,1.63,.93,2.1Zm1.33-1.7s-.03,.06-.02,.07c.05,.18,.11,.35,.16,.52,.07,.24,.17,.48,.11,.74-.06,.26,.06,.41,.26,.54,.09,.05,.18,.13,.28,.06,.1-.06,.1-.17,.1-.28,0-.05,0-.09-.02-.13-.15-.43-.3-.86-.52-1.26-.07-.13-.19-.22-.34-.26Zm1.56,2.57c.02-.08,.04-.15,.04-.21-.01-.25-.08-.49-.19-.72-.04-.08-.1-.17-.1-.25,0-.16-.07-.28-.18-.38-.06-.05-.09-.13-.14-.19-.07-.1-.16-.18-.32-.27,.06,.16,.09,.27,.13,.37,.14,.32,.25,.63,.21,.99-.02,.17,.07,.33,.17,.47,.08,.12,.2,.18,.39,.2Zm1.01,.79c.05-.16,.02-.28-.03-.39-.23-.47-.49-.93-.85-1.32-.02-.02-.05-.02-.11-.03,.1,.33,.19,.64,.19,.96,0,.05,.04,.11,.08,.15,.12,.14,.24,.27,.37,.4,.09,.1,.18,.21,.35,.24ZM2.23,5.46s-.04,0-.06,0c-.01,.1-.03,.2-.03,.31,0,.34,0,.69,.02,1.03,.03,.44,.12,.86,.27,1.27,.05,.13,.13,.24,.21,.35,.03,.05,.1,.05,.15,0,0-.02,0-.05,0-.07-.34-.7-.49-1.45-.49-2.23,0-.14,0-.28-.01-.41,0-.09-.03-.17-.04-.26Zm.64,.2c-.05,.61,.41,2.09,.77,2.48,.04-.05,.09-.09,.12-.13-.18-.39-.36-.76-.53-1.14-.18-.38-.25-.8-.36-1.21Zm11.27,4.5c-.03-.11-.03-.15-.05-.19-.11-.17-.23-.31-.39-.43-.22-.16-.45-.32-.6-.55,0-.01-.04-.01-.07-.02-.1,.1-.11,.23-.13,.37,.17,.17,.39,.25,.59,.37,.2,.13,.4,.27,.66,.45Zm-2.73-4.73s-.04-.06-.05-.08c-.02-.01-.04-.03-.06-.03-.27,.04-.49,.15-.62,.42,.13,.1,.25,.18,.37,.27,.11-.06,.21-.12,.31-.17,.1-.05,.2-.09,.34-.16-.15-.08-.26-.07-.37-.03-.11,.04-.19,.14-.37,.15,.17-.15,.3-.26,.45-.38Zm2.32,4.69c-.04,.35,.09,.66,.37,.87,.19-.09,.14-.26,.15-.42,0-.12-.07-.19-.16-.24-.12-.07-.23-.14-.36-.21ZM2.79,6.54c-.04,.34,.06,.58,.13,.83,.1,.32,.19,.65,.39,.95,.05-.03,.09-.05,.11-.07-.21-.56-.41-1.1-.63-1.71Zm10.52,2.32c-.03,.13,.04,.21,.1,.26,.17,.13,.31,.32,.61,.42-.15-.29-.3-.5-.46-.71-.09,.01-.18,.02-.26,.03Zm-5.75-1.29c-.01-.27-.02-.53-.03-.79,0-.26,.04-.52-.03-.83-.16,.52-.13,1.27,.06,1.62Zm.43-.02c0-.08,.01-.16,0-.23-.06-.28-.03-.56,0-.85,.02-.24,.06-.49,0-.73-.14,.61-.14,1.21,.01,1.82Zm-.23-1.56s-.05,0-.08,0c0,.39,0,.78,0,1.16,0,.2,.03,.41,.06,.61,.02,.15,.13,.17,.33,.06-.09-.02-.15-.03-.22-.05-.04-.19-.09-.39-.11-.59-.02-.2-.03-.41-.02-.62,0-.2,.02-.39,.03-.59Zm5,1.47c-.01-.18-.09-.28-.15-.38-.13,.01-.26,.03-.41,.04,.09,.13,.16,.23,.24,.35,.1,0,.2-.01,.32-.02ZM3.95,4.31c.07-.04,.14-.05,.15-.07,.08-.23,.14-.47,.16-.72-.17,.22-.33,.44-.31,.79Zm9.47,4.33c-.03-.12-.07-.24-.18-.31-.09-.05-.18-.1-.3-.02,.04,.07,.07,.15,.12,.23,.11,.17,.11,.17,.37,.1ZM6.1,3.61c.22-.12,.33-.32,.37-.58-.19,.14-.26,.37-.37,.58Zm6.47,4.07s.05,.11,.09,.13c.08,.04,.17,.05,.26,0,.02,0,.03-.04,.02-.06-.01-.03-.03-.07-.06-.08-.1-.03-.2-.05-.31,.01Zm.23,.32c.07,.2,.14,.24,.29,.15,.02-.01,.04-.06,.04-.08,0-.03-.04-.07-.06-.07-.09,0-.17,0-.27,0Z"/>
  <path class="cls-1" d="M1.54,7.85c-.03,.06-.06,.12-.1,.18q-.2-.25-.44-.17c-.07,.23,.04,.4,.23,.52,.14,.09,.17,.2,.18,.34,.02,.5,.19,.73,.67,.92,.03,.01,.08,.01,.1,.03,.16,.18,.34,.15,.53,.07,.09-.04,.2-.05,.32-.07-.02-.13-.03-.27,.12-.34,.06,.05,0,.11,.02,.15,.02,.06,.06,.12,.08,.18,.02,.05,.02,.11,.03,.17,.25,.06,.5,.15,.76,.09,.1-.02,.17,.01,.26,.06,.09,.05,.18,.09,.28,.13,.13,.05,.27,.05,.4,0,.11-.04,.22-.07,.33-.08,.14-.02,.27,0,.4,.06,.27,.14,.55,.14,.83,.02,.13-.06,.25-.04,.36,.01,.34,.17,.39,.26,.95,.1,.21-.06,.43-.07,.65,0,.04,.01,.09,0,.16,0-.02-.07-.04-.12-.06-.17,.02,0,.05-.02,.06-.02,.17,.1,.35,.18,.55,.08,.04,.05,.07,.1,.11,.16,.22-.09,.42-.03,.61,.08,.13,.07,.26,.08,.4,.03,.05-.02,.11-.03,.16-.05,.22-.11,.42-.13,.65,0,.1,.06,.27,.03,.4,.04,.05,0,.11,0,.19,0-.05,.05-.07,.09-.09,.1-.19,.07-.39,.09-.57,.01-.21-.09-.4-.06-.6,0-.07,.02-.13,.05-.2,.06-.14,.03-.27,0-.4-.06-.16-.08-.32-.11-.5-.08-.16,.03-.32,.02-.48,.02-.09,0-.19,0-.27-.04-.29-.14-.59-.1-.87-.03-.26,.07-.5,.05-.73-.07-.18-.09-.35-.1-.56-.05-.26,.07-.54,.1-.8-.07-.13-.08-.29-.08-.43-.03-.37,.12-.72,.11-1.06-.09-.04-.02-.09-.04-.13-.03-.22,.06-.43-.03-.65-.05-.1-.01-.2-.04-.29-.1-.12-.07-.23-.1-.36-.05-.4,.14-.71-.07-1.02-.25-.07-.04-.12-.11-.18-.16-.21-.18-.3-.4-.28-.67,0-.06,0-.11,0-.16-.02-.03-.02-.06-.04-.07-.31-.19-.43-.45-.38-.81,.03-.23,.02-.46-.11-.66-.01-.02,0-.06,0-.09,0,0,.02-.01,.04-.03,.2,.18,.23,.43,.22,.7,.1,0,.2,0,.29,.03,.09,.03,.18,.1,.26,.16h0Z"/>
  <path class="cls-1" d="M6.38,9.43c-.03-.11-.05-.23,.04-.32,.03-.04,.09-.07,.14-.08,.14-.03,.25,.06,.3,.22-.1,.05-.13-.07-.2-.09-.08-.02-.13,0-.17,.06-.04,.06,0,.17-.11,.2Z"/>
  <path class="cls-1" d="M5.38,9.46c-.08-.17-.11-.32-.27-.38-.06,.04-.12,.09-.19,.14-.03-.12,.01-.2,.11-.26,.09-.05,.19-.02,.27,.07,.08,.1,.19,.2,.08,.42Z"/>
  <path class="cls-1" d="M5.48,8.68c-.07-.08-.12-.15-.18-.2-.08-.07-.18-.11-.28,.04-.02,.04-.05,.07-.08,.12-.06-.11-.01-.19,.05-.25,.03-.04,.09-.07,.14-.08,.11-.02,.2,.03,.28,.1,.06,.06,.14,.12,.07,.27Z"/>
  <path class="cls-1" d="M5.94,8.56c.02-.27,.21-.25,.35-.28,.15-.03,.29,.07,.35,.21,0,.02,0,.06,0,.06-.03,0-.06,.02-.08,0-.26-.2-.28-.2-.61,0Z"/>
  <path class="cls-1" d="M4.67,8.47q-.31-.18-.58-.04c.02-.07,.02-.13,.04-.17,.07-.1,.18-.09,.28-.07,.14,.03,.19,.07,.26,.27Z"/>
  <path class="cls-1" d="M7.22,9.51c-.08-.12-.12-.21-.07-.31,.03-.06,.08-.11,.13-.15,.1-.07,.19-.02,.27,.12q-.29,0-.34,.34Z"/>
  <path class="cls-1" d="M3.7,9.19q.08,.31,.33,.46c-.13,.07-.2,.07-.3-.04-.12-.13-.14-.21-.04-.42Z"/>
  <path class="cls-1" d="M9.56,9.85q.35,.21,.62,.24c-.05,.11-.15,.13-.25,.11-.16-.03-.29-.11-.37-.35Z"/>
  <path class="cls-1" d="M10.81,9.03c.12,.03,.13,.15,.2,.21,.07,.07,.13,.15,.21,.22-.24,.02-.4-.16-.4-.44Z"/>
  <path class="cls-1" d="M9.72,9.15s.01,.09,.02,.14c-.05,0-.08,0-.11,0-.03,0-.07,0-.09,0-.12,.08-.07,.21-.13,.36-.02-.08-.04-.12-.04-.17-.01-.29,.05-.34,.36-.33h0Z"/>
  <path class="cls-1" d="M6.15,9.14s-.08-.04-.12-.06c-.03-.01-.06-.02-.11-.04-.05,.08-.11,.16-.17,.25,0-.27,.05-.35,.2-.35,.14,0,.19,.05,.19,.2Z"/>
  <path class="cls-1" d="M2.07,9.33c-.02-.1,.05-.15,.13-.17,.18-.04,.32,.02,.47,.18-.07,0-.1,.02-.13,0-.26-.09-.26-.09-.47-.02Z"/>
  <path class="cls-1" d="M8.18,9c-.11,.09-.21,.16-.31,.24-.07-.08-.03-.16,.03-.22,.08-.08,.17-.1,.28-.01Z"/>
  <path class="cls-1" d="M11.43,9.59c.14,.05,.27,.11,.41,.16-.02,.1-.07,.1-.13,.09-.13-.02-.21-.11-.31-.18,0-.02,.02-.05,.03-.07Z"/>
  <path class="cls-1" d="M7.23,9.83c.09-.11,.18-.12,.27-.1,.11,.03,.21,.07,.25,.21-.11,.06-.15-.07-.22-.08-.09,0-.17-.02-.29-.03Z"/>
  <path class="cls-1" d="M11.37,10.2c-.22,0-.23,0-.43-.31,.04-.05,.08-.03,.11,0,.1,.1,.2,.19,.32,.3Z"/>
  <path class="cls-1" d="M2.06,8.71c-.15,.01-.28,.05-.43-.03,.24-.11,.3-.11,.43,.03Z"/>
  <path class="cls-1" d="M9.21,8.69c-.13,.05-.24,.09-.37,.14,0-.02-.02-.07,0-.1,.02-.05,.07-.09,.11-.11,.1-.04,.2-.03,.26,.08Z"/>
  <path class="cls-1" d="M3.93,8.9c.09-.13,.18-.17,.28-.14,.1,.03,.18,.08,.19,.23-.09-.04-.15-.09-.22-.1-.07-.01-.14,0-.25,.01Z"/>
  <path class="cls-1" d="M8.57,9.79c0-.09,0-.19,.08-.24,.06-.04,.14-.07,.21-.07,.04,0,.09,.04,.2,.1-.15,.02-.24,0-.3,.04-.08,.04-.14,.11-.2,.17h0Z"/>
  <path class="cls-1" d="M10.62,9.77c-.13,.07-.19,0-.26-.05-.07-.05-.11-.11-.07-.2,0,0,.02-.02,.02-.02,.1,.09,.2,.17,.31,.28Z"/>
  <path class="cls-1" d="M11.75,9.14c-.27,.12-.3,.11-.41-.1,.13,.03,.24,.06,.41,.1Z"/>
  <path class="cls-1" d="M9.73,9.16c-.06-.04-.11-.07-.17-.11,0,0,0-.02-.01-.03q.12-.05,.41,.05c-.1,.03-.17,.06-.24,.08h0Z"/>
  <path class="cls-1" d="M8.56,9.78c-.15,.03-.3,.07-.48,.11,.2-.22,.21-.22,.48-.1h0Z"/>
  <path class="cls-1" d="M10.25,8.87c.18,.08,.28,.12,.39,.17-.18,.11-.19,.11-.39-.17Z"/>
  <path class="cls-1" d="M4.47,9.55c.17-.16,.2-.16,.38,.03-.14-.01-.25-.02-.38-.03Z"/>
  <path class="cls-1" d="M6.6,9.78c-.11-.06-.25-.07-.37-.2,.18,0,.29,.05,.4,.14,0,0-.01,.03-.03,.06Z"/>
  <path class="cls-1" d="M5.67,7.85s.1,.08,.14,.13c.01,.02,0,.06,0,.09-.03,0-.07,0-.09-.01-.04-.04-.07-.1-.1-.15,.02-.02,.04-.03,.06-.05Z"/>
  <path class="cls-1" d="M5.59,9.77c-.09-.06-.17-.11-.28-.18q.18-.04,.28,.18Z"/>
  <path class="cls-1" d="M8.65,8.26s.05,.09,.07,.13c0,0-.04,.03-.04,.03-.03-.04-.07-.08-.1-.12,.02-.01,.03-.02,.07-.05Z"/>
  <path class="cls-1" d="M7.03,7.5c0,.06-.03,.12-.1,.11-.03,0-.08-.05-.09-.09-.11-.41-.12-.84-.06-1.26,.04-.32,.12-.63,.2-.94,.03-.13,.08-.26,.19-.35,.1,.03,.08,.09,.06,.14-.26,.53-.3,1.1-.33,1.67-.01,.23,.04,.45,.1,.67,0,.02,.03,.03,.05,.05h0Z"/>
  <path class="cls-1" d="M8.33,5.17c.08,.01,.16,.03,.15,.14-.03,.19-.06,.38-.09,.57-.09,.58-.07,1.16,.04,1.73,.01,.08,.02,.15,.04,.29-.08-.07-.11-.09-.13-.13-.08-.19-.13-.39-.13-.6,0-.18,0-.36,0-.55-.01-.41,.03-.82,.13-1.22,.02-.09,.06-.18,0-.26h0Z"/>
  <path class="cls-1" d="M5.15,3.06c.05,.08,.09,.12,.08,.15-.08,.22-.18,.44-.28,.67-.03-.04-.05-.06-.05-.07,0-.06,0-.12,.02-.17,.07-.18,.14-.35,.23-.58Z"/>
  <path class="cls-1" d="M8.68,4.27c.13-.1,.27-.2,.4-.3,.09-.07,.18-.13,.3-.11,0,.07,.01,.16-.07,.17-.22,.04-.34,.19-.48,.34-.01,.01-.04,.02-.06,.03-.07,0-.08-.06-.09-.12Z"/>
  <path class="cls-1" d="M10.33,4.47s.03,.08,.04,.14c-.1,.05-.2,.08-.28,.13-.08,.05-.16,.11-.28,.19,.13-.27,.31-.38,.53-.45h0Z"/>
  <path class="cls-1" d="M2.56,3.78c-.01,.1-.02,.2-.03,.3,0,.02-.03,.03-.05,.05,.01-.09,.02-.16,.03-.23,0-.03,.02-.06,.04-.09,0,0,.02-.02,.03-.02h0Z"/>
  <path class="cls-1" d="M1.06,5.58c-.02-.34,.13-.62,.32-.88,.01-.01,.06,0,.09,0,0,.03,.01,.05,0,.07-.09,.21-.19,.41-.28,.62-.03,.08-.05,.15-.14,.18h0Z"/>
</svg>