<?xml version="1.0" encoding="UTF-8"?>
<svg id="Capa_1" data-name="Capa 1" xmlns="http://www.w3.org/2000/svg" viewBox="0 0 19.21 16.74">
  <defs>
    <style>
      .cls-1 {
        fill: #fff;
      }
    </style>
  </defs>
  <path class="cls-1" d="M10.64,6.25c.41-.74,.89-1.37,1.48-1.93-.08-.8,.04-1.58,.23-2.36,.03-.14,.1-.27,.18-.39,.38-.59,.92-.99,1.56-1.25,.16-.06,.33-.11,.48-.19C14.82,0,15.09,0,15.37,0c.48,0,.73,.31,.93,.67,.06,.1,.06,.26,.02,.38-.1,.36-.39,.84-.98,.83-.16,0-.32,0-.5,0-.06,.12-.12,.26-.2,.37-.18,.26-.39,.49-.75,.52-.37,.03-.61-.14-.79-.42-.07-.11-.11-.23-.17-.37-.03,.03-.08,.05-.09,.08-.14,.47-.19,.96-.21,1.45,0,.08,.03,.16,.05,.27,.3-.09,.53-.27,.78-.39,.04-.02,.08-.05,.09-.09,.09-.23,.31-.28,.51-.38,.37-.18,.77-.26,1.17-.29,.47-.04,.9,.11,1.16,.53,.31,.49,.3,1.02,.07,1.54-.17,.37-.59,.54-.98,.43-.15-.04-.3-.09-.48-.15-.07,.06-.17,.13-.25,.21-.3,.31-.78,.06-.85-.28-.05-.23-.03-.46,.01-.69,.02-.12,.11-.24,.02-.37-.63,.06-2.26,1.46-2.84,2.53,.06,.03,.11,.08,.17,.11,.25,.12,.5,.23,.74,.36,.1,.05,.19,.14,.25,.23,.21,.32,.51,.54,.77,.81,.42,.44,.84,.88,1.24,1.34,.23,.26,.41,.56,.44,.93,.02,.2,.04,.39,.12,.58,.07,.17,.07,.37,.09,.55,.04,.27,.07,.54,.13,.81,.04,.2,.06,.4,.02,.6-.06,.37-.1,.75-.23,1.1-.12,.33-.27,.64-.54,.88-.18,.16-.32,.37-.49,.55-.19,.2-.41,.37-.68,.45-.3,.09-.56,.23-.81,.41-.62,.46-1.33,.6-2.09,.59-.46,0-.93-.03-1.39,0-.35,.03-.69,.04-1.04,.05-.42,.02-.83-.08-1.25-.12-.1-.01-.2-.04-.3-.04-.57,0-1.02-.29-1.43-.64-.26-.22-.47-.5-.71-.76-.08-.08-.12-.19-.25-.22-.05-.01-.09-.1-.13-.16-.09-.14-.17-.3-.37-.33-.05,0-.11-.04-.15-.08-.35-.35-.67-.72-.77-1.23-.05-.28-.09-.57-.11-.86,0-.15,.02-.32,.06-.47,.14-.5,.35-.98,.6-1.44,.34-.61,.68-1.21,1.06-1.79,.26-.39,.58-.72,.91-1.05,.2-.21,.4-.43,.63-.59,.45-.32,.95-.55,1.49-.69,.16-.04,.3-.09,.43-.2,.33-.27,.71-.36,1.13-.29,.11,.02,.23,0,.35,0,.47,0,.92,.08,1.33,.34,.08,.05,.19,.07,.3,.11Zm-5.34,1.65c.01-.1,.08-.21,0-.32q-.14,.13,.01,.31c.01,.16,.01,.32,.04,.48,.02,.15,.01,.31,.14,.47,.21-.24,.4-.45,.59-.67,.08-.1,.16-.2,.26-.32-.08-.04-.13-.08-.19-.11-.06,.05-.11,.08-.15,.12-.22,.21-.45,.24-.69,.05Zm7.05-3.4c.05-.02,.11-.03,.16-.06,.42-.28,.8-.61,1.27-.83,.05-.02,.11-.06,.14-.1,.17-.25,.41-.22,.66-.18,.26,.05,.48,.19,.72,.3,.28,.13,.48,.32,.64,.57,.09,.14,.19,.29,.28,.44,.14-.26,.18-.38,.16-.72,0-.17-.04-.35-.1-.5-.14-.32-.63-.6-.96-.56-.46,.07-.91,.14-1.32,.38-.07,.04-.17,.08-.21,.14-.09,.15-.24,.2-.37,.28-.16,.1-.34,.17-.48,.29-.21,.17-.47,.29-.58,.56-.35,.15-.49,.3-.54,.58,.2-.21,.42-.34,.53-.58ZM6.79,15.89h-.01c.1,.05,.19,.13,.3,.15,.24,.05,.48,.08,.72,.12,.05-.07,.08-.17,.12-.17,.22-.01,.26-.22,.35-.34,.1-.13,.14-.31,.18-.48,.03-.12,.04-.26,.04-.39,0-.08-.04-.16-.05-.22h-.43c-.09,.25-.16,.5-.27,.73-.11,.24-.19,.51-.49,.62,.19-.45,.45-.86,.44-1.38-.19-.09-.36-.23-.59-.28-.11,.13-.22,.24-.31,.37-.18,.24-.35,.49-.53,.73-.1,.14-.17,.13-.25-.07,.04-.04,.1-.06,.13-.11,.25-.33,.49-.67,.74-1,.01-.02,0-.05,0-.11-.08,.05-.16,.08-.21,.13-.17,.21-.35,.42-.49,.65-.08,.13-.1,.29-.15,.44-.08-.02-.15-.04-.24-.06,.19-.56,.54-.97,.89-1.39-.06-.07-.1-.13-.15-.18-.06-.06-.13-.1-.19-.15-.4,.2-.74,.51-.94,.83-.21,.33-.16,.66,.15,.92,.37,.31,.8,.5,1.26,.63Zm3.48-3.48c.17,.13,.19,.18,.11,.3-.11,.17-.25,.28-.46,.29-.08,0-.16,0-.24,0-.12,.24-.13,.48-.16,.75,.12,.03,.22,.06,.31,.09,.03-.04,.05-.05,.05-.06,0-.12,.01-.25,.02-.38q.24,.1,.13,.53c.14,.14,.29,.29,.46,.45,.05-.1,.09-.16,.1-.23,0-.07-.03-.14-.02-.21,0-.03,.04-.1,.06-.1,.05,0,.11,.03,.14,.07,.03,.04,.04,.11,.03,.17-.03,.15-.07,.3-.11,.45,.04,.04,.08,.08,.11,.12,.24,.41,.32,.41,.73,.24,.02,0,.05,0,.09,.01,0,.04,.02,.09,0,.11-.15,.16-.36,.17-.56,.17-.18,0-.24-.13-.33-.25-.03-.04-.06-.07-.15-.19,.05,.44-.27,.62-.39,.9,.27,.17,.35-.15,.53-.18,.03,.2,.02,.24-.1,.34-.23,.2-.47,.16-.68,.01-.46,.14-.89,.27-1.35,.17-.13-.03-.22,.03-.26,.19,.2,0,.38-.02,.57,0,.25,.03,.49,.02,.73-.05,.3-.09,.58-.1,.89-.03,.6,.14,1-.09,1.21-.68,.06-.16,.14-.28,.3-.34,.05-.02,.09-.06,.14-.1-.04-.05-.08-.1-.13-.17,.06-.04,.1-.09,.15-.1,.26-.08,.38-.24,.29-.52,0,0,.02-.02,.03-.04,.26-.04,.16,.26,.33,.34,.05-.14,.1-.27,.15-.44,.25-.12,.47-.3,.33-.69-.15,.11-.27,.23-.42,.3-.16,.07-.35,.16-.55-.03,.08-.04,.14-.1,.2-.1,.33-.02,.54-.17,.59-.52,0-.02,.04-.04,.06-.06,.03,0,.06,0,.08,.01,.22,.11,.32,.09,.43-.09,.15-.24,.11-.46-.02-.69-.11-.01-.19,.02-.2,.12-.01,.17-.13,.25-.25,.33-.57,.42-1.38,.36-1.92,0-.19-.13-.34-.3-.53-.47-.14,.05-.3,.1-.46,.16-.03,0-.04,.04-.07,.05-.23-.04-.46-.04-.68,.04,.03,.27,.05,.29,.22,.3,.24,.01,.29-.02,.41-.28,.01-.03,.03-.05,.04-.08Zm1.22-5.57c-.12-.08-.17-.12-.23-.15-.18-.07-.36-.12-.53-.18-.39-.14-.79-.17-1.19-.16-.13,0-.26,.05-.38,.09-.16,.06-.32,.13-.47,.2-.13,.06-.26,.12-.39,.19-.14,.07-.28,.16-.42,.22-.8,.33-1.42,.88-1.92,1.57-.08,.11-.17,.2-.25,.3-.27,.35-.61,.66-.83,1.05-.22,.38-.46,.74-.67,1.12-.18,.33-.37,.65-.46,1.02-.09,.38-.17,.76-.24,1.15-.03,.18-.04,.38-.03,.56,0,.17,.08,.33,.26,.43,.01-.06,.03-.1,.03-.14-.04-.59,.06-1.15,.31-1.69,.04-.08,.07-.16,.1-.24,.26-.74,.72-1.38,1.06-2.08,.06-.13,.16-.24,.25-.35,.23-.31,.48-.62,.71-.94,.34-.48,.83-.8,1.3-1.13,.02-.02,.05-.03,.08-.04,.22-.1,.45-.2,.67-.3,.75-.33,1.54-.49,2.36-.49,.27,0,.54,.01,.89-.02Zm2.76,3.97c-.36-.48-.81-.71-1.31-.81-.32-.07-.6-.19-.87-.35-.08-.05-.17-.07-.27-.11-.04,.09-.08,.16-.1,.22-.14,.51-.16,1.02-.11,1.54,.03,.31,.15,.6,.4,.79,.56,.41,1.37,.17,1.64-.3,.07-.12,.17-.24,.24-.36,.13-.21,.25-.42,.38-.63Zm-3.4-1.41c-.07,0-.15,0-.24,0-.36,0-.73,0-1.05-.17-.27-.14-.52-.13-.78,0-.08,.04-.16,.07-.24,.11-.24,.11-.28,.17-.26,.43,.05,.47,.18,.9,.51,1.26,.33,.35,.73,.45,1.18,.36,.69-.14,1.04-.72,1.08-1.38,.01-.22,0-.44-.2-.61Zm-4.45,3.72s0,.06,.02,.08c.28,.41,.7,.67,1.09,.96,.06,.04,.13,.06,.2,.08,.36,.14,.71,.04,1.05-.08,.26-.09,.43-.26,.5-.5,.1-.31,.17-.64,.13-.98-.02-.18-.09-.3-.26-.36-.18-.06-.35-.12-.51-.17-.75,.6-.72,.84-2.23,.96Zm-.58-1.27c.44,.41,.89,.62,1.42,.37,.5-.23,.85-.59,.88-1.19,.03-.54-.21-.94-.67-1.23-.21,.21-.46,.32-.71,.44-.21,.09-.41,.22-.62,.33-.05,.22-.08,.43-.13,.64-.05,.21-.11,.41-.17,.63Zm5.68-4.14c-.33-.34-.73-.42-1.05-.62-.37,.01-.75-.06-1.08,.15,.02,.13,.07,.2,.19,.21,.16,0,.32,0,.47,.03,.2,.04,.27,.2,.18,.4-.03,.06-.11,.1-.06,.21,.07,.04,.15,.09,.24,.14,.32,.15,.61,.34,.85,.59,.31,.31,.69,.52,1.05,.76,.24,.15,.5,.2,.77,.2,.03-.05,.05-.07,.05-.1,0-.04,.01-.09,0-.13-.2-.4-.4-.8-.74-1.11-.13-.12-.28-.2-.47-.19-.13,0-.25-.04-.41-.06-.14,.09-.3,.17-.5,.14-.17-.03-.29-.16-.29-.32,0-.13,.11-.26,.28-.28,.14-.01,.29,0,.51,0Zm-2.76,6.73c0,.08-.03,.14-.02,.19,.05,.25,0,.49-.05,.72-.02,.07-.03,.14-.04,.21-.01,.11,.05,.19,.16,.22,.51,.12,1.15-.14,1.44-.57,.15-.22,.15-.62-.05-.84-.21-.24-.47-.36-.79-.44-.15,.25-.37,.43-.65,.51Zm-4.68,.13c.02,.07,.01,.15,.05,.2,.29,.38,.57,.77,.94,1.08,.3,.26,.65,.43,1.05,.49,.21,.03,.43,.05,.64,.09,.63,.14,1.27,.09,1.9,.06,.04,0,.08-.02,.21-.07-.22,0-.35-.02-.47-.02-.47,0-.94-.04-1.37-.18-.63-.2-1.24-.47-1.77-.9-.19-.16-.26-.32-.22-.56,.03-.21,.07-.42,0-.65-.35,.09-.66,.25-.96,.45Zm8.34-6.38c.39,.32,.59,.73,.82,1.14,.07,.13,.15,.25,.13,.4,0,.11,.04,.2,.14,.25,.27,.12,.49,.29,.72,.48,.11,.09,.27,.02,.3-.12,.01-.07,.01-.14,0-.21-.05-.29-.18-.55-.39-.76-.44-.46-.87-.92-1.31-1.38-.04-.04-.09-.07-.14-.1-.03-.02-.08-.01-.12-.02-.04,.1-.08,.19-.15,.33Zm-1.17,8.17c.19-.01,.36-.06,.52-.16,.29-.19,.57-.42,.89-.54,1.13-.42,.97-.59,1.56-1.17,.22-.22,.38-.48,.45-.78,.1-.42,.17-.85,.21-1.28,.02-.22-.07-.45-.11-.66-.09,.29-.18,.58-.29,.86-.07,.18-.12,.36-.07,.55,.04,.19,0,.38-.08,.55-.32,.63-.72,1.19-1.42,1.44-.09,.03-.19,.06-.28,.11-.1,.05-.22,.1-.29,.18-.33,.33-.67,.66-1.09,.9Zm-.04-7.3c-.06-.08-.09-.14-.14-.18-.2-.14-.4-.28-.61-.41-.2-.12-.4-.27-.62-.3-.27-.03-.44-.19-.63-.33-.01,0-.03-.01-.04-.02-.12-.04-.24,.04-.21,.17,.05,.2-.04,.3-.2,.37-.09,.04-.19,.06-.31,.1,.18,.08,.34,.14,.5,.21,.12,.05,.25,.09,.35,.16,.59,.42,1.21,.48,1.91,.22Zm-2.28-.17c-.14-.13-.31-.17-.47-.21-.34-.08-.67-.15-1.01-.22-.13-.02-.26-.03-.38-.04-.12-.02-.22,.02-.32,.1-.28,.21-.45,.5-.6,.81,.5,0,.97-.02,1.44-.02,.14,0,.29,0,.43-.02,.11-.01,.23-.04,.33-.09,.19-.09,.38-.19,.59-.3ZM13.32,1.06c.37,.31,.68,.63,.93,1,.03,.05,.09,.08,.14,.12,.03-.03,.05-.04,.05-.06,.02-.05,.05-.1,.06-.16,.09-.33,.11-.35,.43-.34,.19,0,.37,0,.56,0,.06,0,.12-.05,.21-.1-.27-.26-.53-.46-.85-.56-.31-.1-.62-.21-.94-.32-.21,.11-.42,.19-.6,.42Zm-.38,13.77c.33-.09,.33-.09,.44-.2,.26-.25,.47-.55,.64-.87,.1-.18,.15-.37,.13-.58-.02-.28,0-.55,.14-.8,.04-.07,.06-.16,.09-.24,.1-.28,.05-.53-.14-.79-.18,.18-.33,.37-.43,.58,.33,.56,.27,.95-.19,1.44-.02,.4-.03,.51-.19,.64-.25,.2-.34,.49-.5,.81ZM3.36,12.65c.04-.08,.07-.12,.08-.16,.05-.3,.13-.59,.27-.87,.04-.08,.04-.2,.02-.29-.08-.28-.18-.55-.28-.82-.02-.06-.09-.1-.16-.18-.23,.42-.46,.79-.56,1.22,.23,.35,.35,.74,.64,1.09Zm.54-1.54c.29-.32,.44-.67,.62-.97-.06-.24-.1-.45-.17-.66-.06-.2-.05-.42-.2-.61-.31,.39-.54,.79-.7,1.19,.15,.37,.29,.69,.44,1.05Zm4.6-.04s-.03,.03-.05,.04c.07,.17,.13,.34,.2,.52,.13,.34,.41,.48,.74,.52,.34,.04,.69,.02,1.03-.08,.41-.13,.58-.42,.5-.92-.08,.05-.15,.1-.22,.15-.37,.29-.8,.37-1.26,.32-.27-.03-.5-.12-.7-.3-.08-.08-.16-.16-.24-.25Zm2.72-1.75c.02,.31,.1,.61,.05,.88-.09,.54-.04,1.1-.22,1.62-.04,.12,0,.23,.07,.33,.43,.61,1.25,.74,1.81,.45,.02,0,.02-.05,.04-.1-.18,0-.35-.01-.52,0-.18,.01-.34-.05-.49-.14-.43-.28-.58-.71-.61-1.18-.02-.27,0-.55,.03-.82,.03-.33,.1-.65,.14-.98q-.13-.08-.32-.06Zm-7.12,3.63c-.12,.32-.13,.65-.16,.98-.01,.13,.02,.26,.13,.37,.33-.15,.69-.24,.98-.49,.02-.28-.08-.51-.17-.76-.05-.14-.17-.2-.31-.18-.15,.02-.31,.05-.47,.08Zm.9-5.12c-.18,.18-.33,.32-.46,.47-.07,.08-.13,.19-.18,.28,.12,.42,.12,.84,.3,1.27,.18-.22,.35-.41,.51-.61,.04-.05,.06-.13,.06-.2-.02-.39-.06-.77-.23-1.21Zm.41,2.46c.66,.11,1.44-.2,2.04-.84-.26-.02-.47-.09-.7-.05-.26,.05-.53,.06-.83,.1-.11,.26-.45,.43-.51,.78ZM15.86,1.36c.06-.04,.08-.04,.09-.05,.18-.2,.18-.43,.08-.64-.12-.24-.31-.41-.6-.43-.1,0-.2,0-.3-.01-.28,0-.52,.11-.77,.26,.15,.18,.35,.18,.51,.27,.18,.1,.36,.18,.53,.28,.16,.1,.31,.21,.46,.32Zm-1.22,2.22c.11,.34,.22,.63,.3,.92,.04,.16,.12,.25,.27,.3,.18,.06,.35,.12,.53,.19,.1-.06,.22-.11,.25-.23,.03-.13-.02-.26-.11-.36-.1-.11-.18-.23-.29-.33-.26-.26-.58-.4-.95-.49Zm-6.34,7.93c-.16,.4-.43,.57-.68,.76-.44,.33-1.12,.35-1.59,.07-.1-.06-.2-.12-.3-.17-.03-.01-.09,.01-.11,.04-.02,.03-.02,.1,0,.11,.1,.08,.2,.16,.31,.24,.51,.36,1.32,.36,1.83,0,.18-.13,.35-.26,.49-.42,.08-.09,.13-.22,.16-.34,.01-.05-.05-.12-.12-.29Zm-3.67,.2c.39-.16,.76-.12,1.07-.32,.11-.29,.21-.57,.17-.89-.41-.01-.73,.07-.9,.48-.06,.15-.17,.27-.24,.41-.04,.07-.05,.15-.1,.32Zm-1.44,2.29c.05-.34,.09-.61,.12-.87,0-.04,0-.09-.02-.12-.18-.37-.4-.72-.64-1.07-.13,.22-.14,.22-.12,.37,.02,.23,.05,.46,.09,.68,.07,.37,.22,.71,.57,1.02ZM13.04,1.3c.03,.21,.06,.38,.09,.54,.02,.08,.04,.17,.08,.25,.03,.07,.07,.13,.11,.18,.24,.33,.45,.37,.86,.14-.03-.28-.21-.49-.41-.67-.19-.18-.36-.42-.73-.43Zm1.13,2.25c.06,.23,.06,.27,.02,.55-.03,.21-.06,.42-.08,.64-.01,.16,.11,.31,.26,.35,.14,.03,.3-.07,.36-.25,.03-.08,.05-.17,.04-.25-.03-.18-.07-.37-.14-.54-.09-.21-.22-.39-.46-.5ZM6.06,7.29c.18-.09,.3-.24,.5-.26,.22-.02,.37,.12,.55,.21,.1-.07,.18-.14,.27-.21-.04-.19-.08-.35-.13-.54-.13,.02-.26,.01-.35,.06-.38,.18-.75,.37-1.12,.56-.05,.03-.08,.08-.15,.16,.18,0,.31,.01,.43,.02Zm-1.44,5.2c.15,.01,.29,.02,.44,.03,.23-.23,.41-.46,.49-.79-.4-.09-.71,.13-1.07,.2-.03,.09-.06,.16-.09,.25,.08,.1,.15,.21,.23,.31Zm.67,.91c.23-.17,.53-.21,.78-.41-.22-.2-.44-.34-.68-.46-.31,.34-.32,.43-.1,.87Zm3.02-6.81c.08-.03,.14-.05,.21-.09,.08-.04,.15-.08,.22-.13,.15-.11,.13-.26-.04-.33-.1-.04-.23-.07-.33-.05-.18,.04-.4,.02-.54,.19,.16,.14,.31,.26,.48,.4Zm-1.15,1.61c.36,.07,.67,.14,1.03,.21-.19-.24-.16-.41,.03-.56,.01,0,.03-.02,.03-.03,0-.05,0-.09,0-.17-.35,.2-.75,.21-1.08,.55Zm3.78-1.11c.29,.18,.51,.3,.72,.45,.22,.15,.46,.14,.73,.15-.34-.54-.83-.6-1.45-.6Zm-4.79,6.2c-.67,.15-.82,.28-.79,.66,.25-.21,.49-.41,.79-.66Zm4.63,3.19c-.51-.22-.75-.23-1.04-.04,.33,.08,.63,.05,1.04,.04Zm3.57-5.65c.07,.17,.13,.35,.2,.52,.02,.05,.07,.09,.13,.16,.04-.48,.03-.57-.09-.75-.07-.1-.15-.05-.23,.07Zm-6.73-1.14c.15,.13,.29,.26,.47,.42-.02-.22,.03-.39-.06-.55-.16-.04-.28,0-.41,.13Zm-1.09-2.06c.07-.05,.16-.1,.23-.17,.1-.09,.07-.17-.07-.21-.15-.04-.28,0-.33,.12-.06,.14,.03,.21,.17,.26ZM12.39,2.98c-.03,.26-.05,.43-.07,.6-.05,.29-.05,.29,.04,.54,.05-.07,.12-.11,.12-.17,0-.1-.03-.2-.03-.3-.01-.2,.01-.4-.05-.68Zm-3.22,4.46c-.08-.05-.12-.1-.17-.1-.19,0-.29,.06-.46,.22q.29,.11,.63-.12Zm-1.11-.74c-.05-.17-.17-.23-.33-.21-.09,0-.15,.07-.15,.17,0,.09,.06,.11,.14,.13,.11,.02,.22,.03,.34-.09Zm1.94,1.07c-.18-.14-.24-.15-.36-.07-.03,.02-.05,.07-.04,.11,0,.03,.05,.08,.08,.08,.12,.02,.25,.03,.32-.12Zm-4.29,.02c.06-.05,.13-.11,.19-.18,.01-.01,0-.06-.01-.08-.03-.02-.08-.05-.1-.04-.07,.04-.12,.1-.18,.16-.01,.01,0,.06,0,.08,.01,.02,.04,.03,.1,.06Zm6.55,.16c-.11-.05-.15-.08-.19-.09-.09-.01-.2-.08-.26,.06,0,.01,0,.03,0,.04,.05,.13,.16,.1,.25,.09,.05,0,.09-.04,.2-.1Zm-3.94,.15c.25,.09,.32,.09,.35,0,0-.01,0-.03,0-.04-.05-.09-.15-.08-.35,.05Zm2.67-.17s-.02,.06-.03,.08c.07,.03,.13,.08,.21,.09,.04,0,.08-.06,.12-.09-.03-.04-.06-.1-.1-.11-.06-.01-.13,.01-.2,.02Zm-1.36-1.81c-.21-.11-.37-.1-.62-.06,.24,.11,.4,.07,.62,.06Z"/>
  <path class="cls-1" d="M10.27,13.49c.07-.05,.11-.1,.14-.09,.34,.1,.54-.06,.69-.34,.14,.02,.13,.1,.1,.19-.18,.38-.45,.46-.92,.24Z"/>
  <path class="cls-1" d="M11.41,13.89c.11,.05,.21,.13,.33,.16,.12,.03,.25,.02,.38,.03,.07,.12-.01,.17-.09,.19-.24,.08-.53-.02-.68-.23-.01-.02-.02-.06,0-.08,0-.02,.04-.04,.07-.07Z"/>
  <path class="cls-1" d="M11.43,13.61c.17-.05,.25-.08,.33-.1q.25-.07,.39-.34c.13,.09,.16,.22,.06,.33-.07,.07-.16,.11-.25,.14-.23,.08-.23,.07-.52-.03Z"/>
  <path class="cls-1" d="M12.64,11.73c-.19-.02-.4-.07-.51-.29-.09-.21-.09-.43,.06-.61,.06-.07,.16-.13,.25-.14,.34-.04,.7,.36,.66,.7-.02,.18-.24,.35-.47,.35Zm.21-.39c-.03-.2-.09-.33-.25-.4-.1-.04-.21,0-.25,.1-.07,.17-.03,.37,.12,.45,.06,.03,.17,.04,.23,.01,.07-.03,.11-.11,.14-.16Z"/>
  <path class="cls-1" d="M9.7,10.98c-.51,.05-.73-.37-.53-.7,.11-.18,.24-.32,.48-.32,.4,0,.67,.44,.47,.8-.05,.08-.14,.15-.23,.19-.09,.04-.2,.04-.19,.04Zm.25-.47c0-.16-.07-.27-.17-.32-.15-.07-.23,.06-.34,.13-.01,0-.02,.02-.03,.03-.08,.09-.11,.2-.06,.32,.05,.1,.14,.15,.29,.13,.04,0,.08-.01,.13-.03,.13-.04,.19-.13,.18-.26Z"/>
  <path class="cls-1" d="M6.79,15.89c.03-.08,.04-.17,.09-.24,.22-.27,.39-.57,.45-.92,0-.03,.01-.06,.03-.08,.04-.03,.1-.07,.14-.06,.04,.01,.05,.08,.07,.13,0,.02,0,.06-.01,.08-.11,.33-.28,.63-.49,.91-.07,.09-.17,.16-.29,.16h.01Z"/>
  <path class="cls-1" d="M7.47,11.07c0,.29-.24,.53-.52,.53-.21,0-.45-.23-.46-.44,0-.25,.3-.55,.57-.54,.24,0,.42,.19,.41,.45Zm-.25-.02s-.06-.12-.12-.17c-.08-.06-.16,0-.23,.06-.04,.04-.07,.09-.1,.13-.06,.08-.04,.16,.03,.23,.07,.07,.16,.12,.27,.06,.11-.06,.17-.15,.15-.32Z"/>
</svg>