<?xml version="1.0" encoding="UTF-8"?>
<svg id="Capa_1" data-name="Capa 1" xmlns="http://www.w3.org/2000/svg" viewBox="0 0 19.21 16.74">
  <defs>
    <style>
      .cls-1 {
        fill: #fff;
      }
    </style>
  </defs>
  <path class="cls-1" d="M17.09,11.09c.34,.38,.8,.5,1.29,.58-.06,.03-.12,.08-.18,.08-.4,.03-.75-.1-1.05-.35-.19-.16-.36-.35-.53-.54-.19-.23-.36-.48-.54-.72-.02-.03-.05-.05-.1-.09-.11,.14-.22,.28-.33,.42,.03,.12,.06,.24,.08,.37,.01,.1,0,.2-.1,.27-.15,.11-.3,.23-.46,.33-.06,.04-.13,.08-.2,.11-.29,.09-.57,.18-.83,.34-.07,.04-.17,.03-.26,.02-.19-.03-.37,.01-.55,.08-.33,.12-.66,.15-1,.06-.16-.04-.3-.03-.44,.04-.2,.09-.42,.11-.63,.05-.18-.05-.35-.03-.51,.05-.19,.08-.38,.13-.59,.12-.18-.01-.34,.03-.51,.12-.32,.17-.66,.25-1.02,.08-.15-.07-.29-.04-.44-.02-.34,.04-.67,.02-.97-.19-.09-.06-.21-.07-.32-.09-.2-.04-.42-.03-.58-.13-.29-.17-.59-.26-.92-.28-.19-.01-.34-.1-.46-.24-.1-.11-.21-.16-.36-.18-.16-.03-.31-.1-.46-.16-.16-.06-.28-.16-.37-.31-.06-.1-.14-.17-.26-.2-.33-.1-.62-.27-.8-.59-.04-.06-.1-.11-.15-.17-.14,.04-.2,.16-.27,.25-.21,.28-.49,.43-.84,.42-.06,0-.13,0-.19,.01-.34,.04-.62-.06-.85-.36,.04-.05,.08-.12,.14-.16,.2-.16,.36-.35,.48-.57,.2-.38,.41-.75,.54-1.16,.13-.39,.32-.77,.62-1.07,.18-.19,.34-.4,.52-.6,.45-.5,1.01-.87,1.58-1.22,.5-.3,1.06-.46,1.59-.69,.36-.15,.72-.21,1.1-.21,.14,0,.28,0,.41-.05,.3-.11,.62-.13,.93-.16,.19-.02,.38,0,.57,0,.21,.01,.43,.04,.64,.04,.36,0,.73-.02,1.09-.02,.1,0,.2,.01,.3,.03,.43,.07,.87,.09,1.3,.21,1.21,.34,2.29,.9,3.28,1.66,.2,.15,.36,.35,.51,.55,.26,.35,.5,.72,.76,1.08,.1,.14,.21,.28,.34,.4,.38,.34,.61,.76,.69,1.26,.03,.16,.08,.32,.13,.47,.05,.17,.12,.33,.15,.5,.06,.32,.2,.59,.46,.79,.02,.01,.03,.04,.05,.06,0,0,0,.02,0,.04-.04,.08-.1,.13-.18,.07-.19-.16-.38-.33-.43-.6-.03-.14-.07-.27-.11-.4-.04-.13-.05-.27-.16-.4-.19,.14-.28,.33-.35,.53-.03,.08-.05,.17-.08,.25-.03,.11-.1,.17-.2,.21,.05-.38,.14-.73,.39-1.03,.06-.07,.1-.14,.14-.22,.02-.04,0-.09,0-.15-.2,.1-.24,.11-.32,.25-.11,.2-.2,.4-.29,.61-.05,.1-.1,.17-.22,.16,.14-.5,.31-.99,.81-1.26-.11-.38-.29-.71-.57-.98-.14-.13-.28-.25-.43-.38-.14,.09-.19,.26-.28,.39-.22,.34-.28,.72-.26,1.12,0,.07,0,.16,.05,.21,.2,.32,.39,.64,.7,.88,.1,.13,.2,.26,.3,.39Zm-4.65-2.01c.1,.02,.13,.08,.07,.16-.09,.13-.22,.2-.37,.25-.42,.15-.76-.05-1.11-.21-.09-.2-.26-.16-.42-.15-.26,.01-.53,.03-.79,.04-.18,0-.35,.01-.53,.02-.1,0-.2,0-.3,.01-.22,.4-.57,.42-.95,.32-.11-.03-.21-.08-.32-.12-.03-.01-.07-.05-.08-.08-.01-.03,0-.07,0-.1,0-.01,.05-.03,.06-.02,.08,.03,.16,.08,.24,.1,.14,.04,.29,.08,.44,.1,.14,.01,.26-.04,.33-.21-.31-.03-.58-.07-.85-.07-.36,0-.7-.05-1.04-.15-.4-.12-.79-.26-1.19-.37-.36-.11-.69-.04-1,.15,.14,.3,.43,.17,.67,.26-.05,.06-.07,.11-.11,.12-.19,.07-.37,.06-.54-.05-.1-.07-.22-.12-.32-.17-.15,.09-.29,.14-.42,.28,.09,.05,.15,.11,.23,.13,.08,.03,.17,.03,.26,.05,.06,.01,.12,.05,.1,.13-.26,.07-.36,.05-.88-.21-.25,.21-.65,.2-.9,.51,.06,.05,.11,.12,.17,.13,.15,.02,.3,.01,.45,.02,.04,0,.08,.03,.12,.06-.1,.18-.29,.12-.41,.21,.08,.14,.21,.18,.34,.23,.14,.06,.28,.09,.4,.13,.24,.52,.68,.59,1.17,.58,.12,.36,.4,.46,.74,.45,.18,0,.34,.02,.48,.16,.11,.11,.26,.15,.41,.17,.14,.02,.28,.03,.41,.03,.1,0,.2,.02,.28,.09,.3,.25,.65,.26,1,.17,.13-.03,.24-.03,.36,.03,.35,.19,.68,.1,1-.1,.05-.03,.07-.09,.1-.12-.13-.19-.39-.18-.45-.43,.06,0,.11-.02,.15,0,.08,.03,.15,.09,.23,.13,.2,.11,.41,.21,.64,.08,.03-.01,.07,0,.12,.02,0,.07-.02,.12-.03,.2,.05,0,.11,0,.15-.02,.25-.17,.52-.17,.8-.1,.17,.04,.33,.02,.48-.06,.19-.1,.37-.11,.57-.03,.28,.11,.59,.11,.84-.05,.19-.12,.36-.14,.56-.11,.17,.03,.33,.01,.46-.12,.1-.09,.22-.11,.34-.14,.13-.03,.29-.06,.38-.15,.12-.12,.25-.2,.4-.27,.11-.05,.14-.14,.12-.25-.01-.06-.03-.12-.06-.18-.06-.12-.03-.22,.06-.31,.04-.03,.08-.07,.11-.1,.14-.16,.13-.36-.03-.5-.06-.05-.13-.08-.19-.12-.35-.2-.74-.32-1.12-.44-.2-.06-.41-.14-.62-.16-.32-.04-.65-.06-.98-.06-.33,0-.65,.03-.98,.06-.16,.02-.32,.06-.48,.09-.01,0-.03,0-.03,.02,0,0,0,.02,0,.04,.49,.34,.75,.34,1.25-.03Zm-2.13-.15c.25,.04,.48-.01,.7-.04,.28-.04,.56-.15,.85-.11,.09,.01,.19-.05,.29-.08-.05-.44-.1-.86-.13-1.29-.03-.43,0-.86,.1-1.27,.1-.41,.21-.82,.32-1.22-.47-.27-1.54-.42-2.08-.29-.16,.34-.25,.72-.3,1.11-.04,.34-.06,.67-.03,1.01,.04,.42,.01,.85,.02,1.28,0,.32,.06,.63,.26,.91Zm-.52,0s.01-.02,.01-.03c0-.06-.01-.13-.03-.18-.19-.58-.26-1.18-.29-1.78-.04-.63-.07-1.25,.11-1.87,.04-.14,.05-.29,.08-.45-.06-.02-.11-.04-.16-.04-.33-.02-.65-.05-.98-.05-.21,0-.43,.03-.64,.05-.1,.01-.16,.07-.17,.17-.01,.15,0,.31-.03,.45-.13,.51-.1,1.02-.14,1.53-.05,.64,.09,1.25,.34,1.83,.05,.12,.11,.25,.16,.36,.37,.07,1.43,.07,1.75,0Zm-2.78-4.13c-.18,0-.36-.04-.5,0-.2,.06-.41,.09-.6,.17-.16,.07-.33,.13-.5,.17-.18,.04-.26,.15-.28,.31-.03,.21-.06,.42-.06,.64,0,.39,.06,.78,.12,1.16,.05,.3,.14,.58,.25,.87,.07,.18,.19,.3,.36,.35,.52,.16,1.04,.31,1.55,.46,.05,.02,.12,0,.21,0-.04-.11-.06-.19-.1-.26-.55-.94-.63-1.97-.55-3.03,.02-.27,.07-.54,.1-.83Zm7.39,4.15c.02-.09,.04-.16,.04-.23,0-.23-.03-.45-.04-.68,0-.29-.02-.58,.02-.86,.04-.39,.2-.74,.46-1.07-.51-.39-1.06-.69-1.66-.91-.04,.05-.09,.09-.12,.14-.19,.28-.32,.6-.4,.93-.17,.63-.18,1.27-.16,1.91,0,.19,.04,.37,.1,.55,.3,0,.59,0,.88,.03,.29,.04,.58,.12,.89,.19Zm-9.39-.58c-.16-.45-.31-.88-.46-1.32-.16-.46-.07-.94-.1-1.43-.07,.01-.12,0-.16,.03-.38,.27-.76,.53-1.13,.81-.22,.16-.27,.37-.19,.63,.12,.41,.29,.81,.52,1.17,.15,.24,.33,.47,.6,.55,.32-.15,.62-.29,.93-.44Zm10.54,1.05c.08-.38,.12-.72,.23-1.04,.11-.32,.29-.6,.45-.91-.15-.35-.44-.61-.68-.89-.03-.03-.08-.05-.15-.08-.07,.12-.14,.22-.19,.33-.2,.46-.28,.94-.28,1.43,0,.27,0,.55-.01,.85,.19,.09,.4,.19,.65,.31Zm-12.03-.31s-.05-.07-.07-.09c-.49-.39-.81-.89-.98-1.49-.02-.05-.06-.1-.1-.17-.29,.24-.41,.56-.56,.86-.01,.03,0,.07,0,.11,.08,.35,.24,.66,.55,.86,.14,.09,.28,.16,.4,.24,.29-.06,.53-.14,.76-.33Zm3.71-4.36c-.04,.23-.07,.45-.11,.67-.12,.72-.1,1.43,.08,2.13,.11,.44,.32,.84,.53,1.25,.02,.04,.06,.06,.1,.1,.07-.12,0-.18-.04-.26-.23-.49-.4-1-.38-1.56,.02-.65,0-1.31,.13-1.95,.03-.13,.03-.27-.06-.41-.08,0-.15,.02-.24,.03ZM1.47,9.1c-.13,.22-.23,.42-.35,.6-.13,.18-.28,.35-.43,.54,.25,.3,.59,.17,.88,.15,.33-.02,.57-.24,.71-.56-.15-.11-.29-.21-.42-.33-.13-.12-.24-.25-.38-.41ZM12.73,4.99c-.21,.2-.25,.45-.32,.69-.19,.68-.29,1.38-.2,2.08,.04,.31,.04,.64,.22,.93-.01-.25-.07-.49-.07-.73,0-.25,.02-.5,.05-.75,.02-.24,.05-.47,.1-.71,.05-.24,.08-.49,.2-.72,.11-.22,.21-.44,.33-.69-.12-.04-.21-.07-.3-.1Zm-2.87,3.08c.01-.07,.04-.14,.04-.21-.01-.41-.02-.83-.05-1.24-.03-.57,.05-1.13,.21-1.68,.03-.1,.05-.21,.07-.31-.12-.09-.2-.04-.22,.05-.08,.28-.16,.56-.21,.84-.04,.26-.11,.52-.06,.79,.03,.17,.04,.35,.04,.52-.01,.42,.04,.82,.18,1.23Zm4.76,.93c.13,0,.14-.09,.14-.16,0-.21,0-.43,0-.64-.02-.34,.03-.67,.14-1,.1-.29,.21-.58,.32-.9-.05-.03-.11-.07-.16-.1-.3,.32-.44,.69-.46,1.1-.02,.56,0,1.12,.02,1.68Zm-9.32-.69c-.15-.46-.29-.92-.32-1.39-.04-.49-.05-.98-.07-1.48h-.16c-.04,.27-.11,.53-.1,.79,0,.43,.09,.85,.24,1.26,.1,.29,.21,.59,.42,.83Zm-1.49,.67s.03-.05,.04-.07c-.28-.24-.52-.51-.66-.85-.14-.34-.29-.69-.44-1.03-.16,.08-.18,.09-.15,.24,.08,.36,.2,.7,.39,1.01,.17,.27,.39,.49,.66,.66,.05,.03,.11,.03,.16,.04Zm12,.58c.11-.05,.1-.14,.09-.21-.04-.32,.06-.6,.23-.86,.08-.12,.15-.23,.21-.36,.07-.12,.13-.24,.06-.39-.18,0-.2,.15-.26,.25-.26,.48-.38,.99-.33,1.56Zm-13.19,.03c-.18-.13-.3-.2-.41-.28-.1-.08-.19-.17-.27-.26-.09-.09-.14-.22-.27-.29-.08,.26,.09,.4,.22,.54,.16,.17,.34,.33,.59,.36,.03,0,.06-.03,.13-.07Z"/>
  <path class="cls-1" d="M9.21,11.93c-.44,.28-.66,.25-1.18-.15-.37,.06-.74,.07-1.03-.25,.03-.09,.1-.11,.15-.07,.28,.22,.57,.22,.87,.1,.14,.1,.26,.19,.39,.26,.18,.1,.37,.15,.58,.06,.07-.03,.14-.05,.22,.05Z"/>
  <path class="cls-1" d="M14.02,10.45c.55,.37,.81,.34,1.19,.06,.04,.04,.08,.08,.13,.12-.05,.04-.07,.06-.1,.08-.35,.25-.71,.24-1.06,.03-.16-.09-.3-.11-.46-.09-.18,.02-.35,0-.51-.07-.02-.01-.05-.02-.07-.03-.06-.03-.11-.08-.07-.14,.02-.03,.09-.04,.13-.03,.13,.03,.26,.09,.4,.1,.13,.01,.27-.02,.43-.03Z"/>
  <path class="cls-1" d="M11.09,10.73c.07,0,.15,0,.22,0,.11,.02,.22,0,.33-.03,.14-.05,.3-.08,.44,0,.26,.13,.48,.09,.7-.08,.02-.01,.05-.01,.07-.02,.07,.05,.05,.11,0,.16-.18,.19-.41,.24-.66,.17-.11-.03-.21-.08-.34-.13-.24,.09-.51,.23-.77,.02,0-.03,0-.06,0-.09Z"/>
  <path class="cls-1" d="M5.13,10.98c-.2,.01-.33,.03-.45,.02-.32-.01-.63-.27-.72-.57,0-.02,.02-.06,.05-.09,.01-.01,.05,0,.07,0,.04,.03,.07,.07,.1,.11,.14,.24,.34,.36,.62,.34,.06,0,.13,0,.18,.02,.04,.01,.06,.06,.15,.16Z"/>
  <path class="cls-1" d="M10.22,9.58c.11,.11,.13,.17,.06,.24-.15,.17-.34,.26-.56,.26-.24,0-.47-.05-.65-.22,.02-.1,.08-.1,.14-.08,.07,.02,.14,.05,.21,.07,.32,.08,.62,.08,.8-.27Z"/>
  <path class="cls-1" d="M13.96,9.43s.02,.11,0,.15c-.03,.05-.09,.08-.14,.11-.34,.19-.81,.11-1.08-.19,.02-.08,.09-.08,.15-.06,.04,0,.07,.03,.1,.05,.29,.15,.57,.17,.85-.04,.02-.01,.04-.02,.07-.03,.01,0,.02,0,.07,0Z"/>
  <path class="cls-1" d="M13.9,11.39c-.3,0-.56-.12-.76-.33-.02-.02-.02-.08-.01-.1,.01-.02,.07-.04,.09-.03,.05,.01,.09,.05,.12,.08,.23,.19,.48,.25,.77,.16,.03-.01,.07-.02,.11-.02,.02,0,.05,.02,.05,.04,0,.02,0,.05,0,.07-.1,.11-.17,.14-.37,.14Z"/>
  <path class="cls-1" d="M13,11.23c-.01,.08,0,.14-.02,.17-.17,.17-.37,.26-.61,.21-.17-.04-.33-.1-.5-.17-.03-.01-.04-.08-.06-.12,.04-.01,.09-.03,.13-.03,.07,.01,.14,.04,.21,.07,.22,.1,.43,.1,.64-.04,.05-.03,.11-.05,.2-.09Z"/>
  <path class="cls-1" d="M4.66,9.95c-.23,.2-.43,.16-.61,.11-.2-.06-.34-.2-.42-.4-.02-.04,.03-.1,.05-.16,.15,.13,.27,.28,.42,.35,.15,.07,.33,.06,.57,.1Z"/>
  <path class="cls-1" d="M5.41,9.3s.1-.03,.14-.02c.08,.03,.16,.07,.24,.11,.18,.1,.37,.15,.57,.06,.03-.01,.11,0,.13,.03,.04,.06,0,.12-.06,.15-.16,.09-.34,.1-.51,.03-.17-.07-.33-.18-.49-.28-.01,0-.01-.04-.02-.09Z"/>
  <path class="cls-1" d="M14,9.84s.06-.06,.08-.07c.02,0,.05,0,.07,0,.32,.22,.65,.2,.98,.04,.11,.11,.03,.18-.05,.21-.33,.12-.66,.14-.96-.07-.04-.03-.07-.07-.13-.11Z"/>
  <path class="cls-1" d="M11.17,11.2c-.41,.33-.78,.34-1.17,0,.05-.02,.1-.05,.13-.05,.06,0,.12,.05,.18,.06,.22,.06,.44,.1,.65-.06,.06-.05,.14-.07,.21,.05Z"/>
  <path class="cls-1" d="M9.6,10.42c-.01,.06,0,.13-.04,.16-.06,.05-.15,.1-.23,.12-.28,.07-.67-.09-.83-.33-.01-.02,0-.05,0-.07,.01-.02,.05-.04,.06-.03,.07,.03,.14,.06,.2,.1,.24,.17,.48,.22,.73,.04,.01-.01,.05,0,.1,0Z"/>
  <path class="cls-1" d="M11.54,9.77c.02,.1,.04,.15,.03,.19-.04,.14-.13,.24-.26,.3-.22,.11-.57,.09-.83-.05,0-.08,.07-.1,.13-.09,.07,.01,.15,.04,.22,.05,.24,.02,.45-.03,.59-.25,.02-.03,.05-.06,.12-.14Z"/>
  <path class="cls-1" d="M8.13,11.02c.07,.01,.15,0,.19,.05,.25,.21,.52,.28,.87,.21,0,.06,.02,.12,0,.13-.35,.18-.86,.02-1.07-.33,0,0,0-.02,.01-.06Z"/>
  <path class="cls-1" d="M7.89,9.98s.04,.1,.02,.13c-.06,.1-.16,.17-.28,.17-.28,.01-.55-.03-.78-.22-.02-.02-.01-.07,0-.1,0-.01,.04-.03,.06-.03,.08,.02,.16,.06,.25,.09,.34,.12,.39,.11,.73-.04Z"/>
  <path class="cls-1" d="M6.47,10.13c-.04,.06-.05,.11-.08,.12-.27,.13-.74,.02-.92-.23-.01-.02,0-.05,0-.07,.01-.02,.04-.03,.06-.04,.02,0,.05,0,.07,0q.42,.2,.86,.21Z"/>
  <path class="cls-1" d="M6.02,8.98s.08-.06,.09-.05c.29,.2,.65,.2,.97,.31-.27,.22-.77,.1-1.06-.26Z"/>
  <path class="cls-1" d="M12.84,10c0,.08-.06,.1-.11,.12-.21,.07-.42,.02-.62-.04-.18-.06-.27-.15-.22-.19,.1-.09,.19,0,.28,.01,.15,.02,.29,.04,.44,.05,.07,0,.15,.01,.22,.02,0,0,.01,.02,.02,.03Z"/>
  <path class="cls-1" d="M8.44,10.67c-.16,.16-.35,.14-.53,.13-.21-.01-.42-.04-.56-.27,.06-.01,.11-.05,.14-.03,.28,.13,.57,.14,.87,.11,0,0,.02,.01,.07,.06Z"/>
  <path class="cls-1" d="M5.12,10.19c.14,.13,.26,.24,.38,.34,.12,.1,.32,.03,.45,.21-.07,.02-.11,.04-.15,.04-.13-.02-.27-.05-.4-.08-.14-.04-.23-.14-.3-.26-.04-.08-.05-.16,.02-.25Z"/>
  <path class="cls-1" d="M5.54,11.14s.07-.05,.08-.04c.25,.09,.5,.19,.77,.29-.03,.04-.05,.09-.07,.09-.32,.03-.58-.07-.78-.34Z"/>
  <path class="cls-1" d="M7.15,10.78c-.29,0-.46,.08-.61,.23-.03,.03-.1,.01-.21,.03,.12-.2,.23-.32,.4-.38,.1-.03,.19,0,.42,.13Z"/>
</svg>